<svg xmlns="http://www.w3.org/2000/svg" viewBox="0 0 27 27"><defs><style>.cls-1,.cls-2{fill:green;}.cls-2{font-size:13.08px;font-family:Arial-BoldItalicMT, Arial;font-weight:700;font-style:italic;}</style></defs><title>Asset 1</title><g id="Layer_2" data-name="Layer 2"><g id="Layer_1-2" data-name="Layer 1"><path class="cls-1" d="M26.88,21.52l-.14-.41a3.78,3.78,0,0,0-2.32-2.19l-3.54-1a3.47,3.47,0,0,0-3,.8L16.56,20A13.62,13.62,0,0,1,7,10.45L8.26,9.16a3.49,3.49,0,0,0,.79-3l-1-3.54A3.78,3.78,0,0,0,5.89.26L5.49.12a3.24,3.24,0,0,0-3,.71L.56,2.75A3.63,3.63,0,0,0,0,4.07,22.75,22.75,0,0,0,6.64,20.36,22.64,22.64,0,0,0,22.87,27a3.54,3.54,0,0,0,1.38-.55l1.92-1.92A3.21,3.21,0,0,0,26.88,21.52Z"/><text class="cls-2" transform="translate(10.64 12.75)">24</text></g></g></svg>
