<svg xmlns="http://www.w3.org/2000/svg" viewBox="0 0 25 27.35"><defs><style>.cls-1{fill:#231f20;}</style></defs><title>Asset 75</title><g id="Layer_2" data-name="Layer 2"><g id="Layer_1-2" data-name="Layer 1"><path class="cls-1" d="M16.12,18.16a6,6,0,0,1,7.12-.81l-1.72-2c-.66-.75-1-.82-1.92-.39-2.33,1.11-4.66,2.21-7,3.33a1.18,1.18,0,0,1-1.18,0C9.08,17.2,6.71,16.08,4.33,15l0,0a1.2,1.2,0,0,0-1.66.39c-.72.79-1.42,1.6-2.12,2.4l-.06,0a1.29,1.29,0,0,0-.13,1.81c1,1.76,2.07,3.49,3,5.26a1.87,1.87,0,0,0,1.88,1.07c3.1,0,6.19,0,9.29,0l.73,0C13.76,22.34,14,20.18,16.12,18.16Z"/><path class="cls-1" d="M20.57,6.71a1.14,1.14,0,0,0,.09-.26A1.88,1.88,0,0,0,20.15,6a8.06,8.06,0,0,0-1.26-.41c-1-.26-1.08-.24-1.08-1.35A5,5,0,0,0,16.29.75,2.1,2.1,0,0,0,14.05.11,7,7,0,0,1,10,.1,2.08,2.08,0,0,0,7.74.76,4.65,4.65,0,0,0,6.29,3.69c0,.39,0,.79-.09,1.19v0a.66.66,0,0,1-.66.65A8.08,8.08,0,0,0,3.88,6c-.2.07-.34.29-.51.44l.1.24A40.73,40.73,0,0,1,20.57,6.71Z"/><path class="cls-1" d="M20.14,17.54H20a4.92,4.92,0,1,0,.11,0Zm-2.57,7.58A3.61,3.61,0,0,1,17,20.49l5,5h0A3.51,3.51,0,0,1,17.57,25.12Zm5.58-.7-5-5a3.63,3.63,0,0,1,5,5Z"/><path class="cls-1" d="M14.77,11.48c2.31,0,3.34-1.12,3.18-3.4,0-.42-.19-.61-.61-.62-.82,0-1.64-.12-2.46-.12-2.7,0-5.41.06-8.11.14A.8.8,0,0,0,6.14,8C5.8,10.41,7.23,11.5,9,11.48h5.74ZM13.54,8.69c.62,0,1.25,0,1.87,0s.55.34.28.6a6.26,6.26,0,0,1-1.21.68h0q-.62-.29-1.2-.63a.57.57,0,0,1-.12-.47C13.17,8.77,13.41,8.69,13.54,8.69Zm-2.74.63a1.76,1.76,0,0,1-2.43,0c-.25-.38-.13-.62.33-.64h.93c.29,0,.58,0,.87,0,.13,0,.36.07.38.15A.69.69,0,0,1,10.8,9.32Z"/><path class="cls-1" d="M5.85,11.07c-.62.38-1.23.78-1.94,1.24L11,16.16a.94.94,0,0,0,.09-.12q-2.4-2.47-4.82-4.92A.44.44,0,0,0,5.85,11.07Z"/><path class="cls-1" d="M20.14,12.31c-.7-.45-1.3-.86-1.92-1.22a.54.54,0,0,0-.5.12c-1.59,1.6-3.17,3.23-4.75,4.84l.09.12Z"/></g></g></svg>