<svg xmlns="http://www.w3.org/2000/svg" viewBox="0 0 18.62 26.93"><defs><style>.cls-1{fill:#fff;}</style></defs><title>Asset 70</title><g id="Layer_2" data-name="Layer 2"><g id="Layer_1-2" data-name="Layer 1"><path class="cls-1" d="M18.49,18.64a24.58,24.58,0,0,0-1.19-4.06c-.87-2.41-1.55-4.84-.46-7.55C14.54,8.19,13.1,9.81,13,12.59,9.75,9,8,5.25,9.9.52,10,.34,10.11.13,9.83,0a8.69,8.69,0,0,0-4,4.78A11.2,11.2,0,0,0,6,11.46a5.14,5.14,0,0,1-.2,3.68.38.38,0,0,1-.31.28c-.27-2.37-.2-4.93-2.91-6.14.05.62.1,1.19.15,1.76a6.62,6.62,0,0,1-1.18,4.58,8.37,8.37,0,0,0-1.5,3.82A5.19,5.19,0,0,0,2.34,24.7a17.45,17.45,0,0,0,4.07,2,.24.24,0,0,1,.1.1c.07.11,0,.1-.09.14h.89c.11-.46-.27-.55-.51-.73a2.91,2.91,0,0,1-1.31-3.64c.45-1.45,1.16-2.82,1-4.53a2.75,2.75,0,0,1,1.2,2.67C9.41,19,10.4,17.16,9.77,14.58a3.05,3.05,0,0,1,1.51,2.6,13.56,13.56,0,0,1-.22,2.46,2.84,2.84,0,0,0,.71,2.64c0-1.19-.16-2.32.9-3.16a5.24,5.24,0,0,0,.68,2.8c1,1.82,1,2.44-.34,4-.1.13-.31.24-.14.44s.28,0,.41-.05a20.79,20.79,0,0,0,3-1.81A5.78,5.78,0,0,0,18.49,18.64Z"/></g></g></svg>
