<svg xmlns="http://www.w3.org/2000/svg" viewBox="0 0 33.1 27.14"><defs><style>.cls-1{fill:#fff;}</style></defs><title>Asset 71</title><g id="Layer_2" data-name="Layer 2"><g id="Layer_1-2" data-name="Layer 1"><path class="cls-1" d="M16.26,10.22l.54,0a5,5,0,0,0,5-4.95h0a5.15,5.15,0,0,0-5-5.29h0a5.11,5.11,0,0,0-5.24,5v.16A4.9,4.9,0,0,0,16.26,10.22Z"/><path class="cls-1" d="M9.23,13.19a9.52,9.52,0,0,1,1.2-1.09c-.1,0-1.68-.61-1.72-.61a4.39,4.39,0,0,1-2.9-.25.68.68,0,0,0-.4-.06,22.83,22.83,0,0,0-2.6.61A3.75,3.75,0,0,0,.15,15C0,16.38,0,17.73,0,19.08a.39.39,0,0,0,.1.25,8.18,8.18,0,0,0,2.4,1.06V17.76h.08c.14.82.27,1.63.41,2.45,0,.14.11.36.19.38.88.18,1.32.29,2.28.46a15.58,15.58,0,0,1,1.1-3.95A12.72,12.72,0,0,1,9.23,13.19Z"/><path class="cls-1" d="M33,15a3.75,3.75,0,0,0-2.66-3.25,22.83,22.83,0,0,0-2.6-.61.69.69,0,0,0-.4.06,4.39,4.39,0,0,1-2.9.25s-1.62.61-1.72.61a9.52,9.52,0,0,1,1.2,1.09,12.72,12.72,0,0,1,2.67,3.9A15.58,15.58,0,0,1,27.64,21c1-.17,1.4-.28,2.27-.46.09,0,.17-.24.2-.38.14-.82.27-1.63.41-2.45h.08v2.63A8,8,0,0,0,33,19.32a.31.31,0,0,0,.1-.24C33.06,17.73,33.09,16.38,33,15Z"/><path class="cls-1" d="M6.14,10.31a4.1,4.1,0,0,0,5-1.63A.62.62,0,0,0,11.14,8,6.15,6.15,0,0,1,10.54,4a.7.7,0,0,0-.19-.55,3.71,3.71,0,0,0-2.18-1C5.65,2.41,4,3.79,3.6,5.8A4.1,4.1,0,0,0,6.14,10.31Z"/><path class="cls-1" d="M26.85,10.43A4.18,4.18,0,0,0,29.8,6.17,3.84,3.84,0,0,0,27.42,2.8a4,4,0,0,0-4.4.63.56.56,0,0,0-.23.64A5.84,5.84,0,0,1,22.2,8a.62.62,0,0,0,.05.72A4.11,4.11,0,0,0,26.85,10.43Z"/><path class="cls-1" d="M25.82,19.94a13.47,13.47,0,0,0-5.18-8.07c-.44-.33-.92-.6-1.42-.92l-.43,2.7c-.3,1.91-.6,3.81-.91,5.72a3.54,3.54,0,0,0,0,1.68,1.92,1.92,0,0,1-.15,1.5,2.24,2.24,0,0,1-2.13,1.3H11.53v.34c0,1,0,.7,0,1.68a10.61,10.61,0,0,0,5.14,1.27A12.87,12.87,0,0,0,21.82,26c0-2.32.2-3.51.2-5.84.74,2.28.59,3.28.66,5.63.85-.27,2-.8,3.13-1.29.62-.26.48-.45.46-1.12A11.78,11.78,0,0,0,25.82,19.94Z"/><path class="cls-1" d="M17.48,21.88a1.76,1.76,0,0,0-1.1-2,.86.86,0,0,1-.57-.61.49.49,0,0,0-.07-.19c-.08-.14,0-.24,0-.37a2.14,2.14,0,0,0,.32-.55c.63-1.78,1.25-3.57,1.88-5.36.23-.69.48-1.37.71-2.05-.51-.28-.6-.27-1,.1l-.89.88c-.27-.24-.53-.46-.77-.7-.56-.56-.56-.58-1.3-.24a14.69,14.69,0,0,0-7.49,7.38,9.64,9.64,0,0,0-.84,2.51,2.08,2.08,0,0,0,1.5,2.42,4.86,4.86,0,0,0,1.13.19c2.23,0,4.45.05,6.68.05A1.79,1.79,0,0,0,17.48,21.88Zm-7.83.94A7.17,7.17,0,0,1,8,22.57a1.4,1.4,0,0,1-1-1.44,5.46,5.46,0,0,1,.44-1.81,14.12,14.12,0,0,1,5.13-6.61l.08,0,.72,1.82c.69,1.77,1.39,3.55,2.07,5.32a.81.81,0,0,0,.61.55,1.25,1.25,0,0,1-.31,2.46C13.69,22.83,11.67,22.85,9.65,22.82Z"/></g></g></svg>
