<svg xmlns="http://www.w3.org/2000/svg" viewBox="0 0 29.8 27.18"><defs><style>.cls-1{fill:#5A8FBB;}</style></defs><title>Asset 74</title><g id="Layer_2" data-name="Layer 2"><g id="Layer_1-2" data-name="Layer 1"><path class="cls-1" d="M15,10.44c-1.55,2.49-3.92,3-6.49,2.81,0,2.59-.1,5.07.06,7.54a3.71,3.71,0,0,0,1.21,2.27c1.63,1.46,3.41,2.74,5.17,4.12C16.56,26,18.14,25,19.53,23.73a5,5,0,0,0,1.8-2.6c.33-2.58.29-5.2.4-7.94C18.84,13.52,16.55,12.84,15,10.44Zm4.52,9.65a3.65,3.65,0,0,1-1.18,2.06A39.76,39.76,0,0,1,15,24.73c-1.25-1-2.53-1.9-3.67-2.94a2.71,2.71,0,0,1-.79-1.62c-.17-1.62-.18-3.26-.27-5a6,6,0,0,0,4.71-1.81,6,6,0,0,0,4.61,1.79A45.6,45.6,0,0,1,19.49,20.09Z"/><path class="cls-1" d="M15.76,16.16H14.1c0,.63-.06,1.19-.1,1.83H12.13v1.77l1.85.12c0,.62.1,1.18.15,1.72h1.63c.05-.61.1-1.15.15-1.73l1.73-.13V18.06l-1.75-.12C15.84,17.28,15.8,16.72,15.76,16.16Z"/><path class="cls-1" d="M14.71,8.92l.45,0a4.43,4.43,0,0,0,4.56-4.32h0a4.63,4.63,0,0,0-9.26-.28,1,1,0,0,1,0,.17A4.34,4.34,0,0,0,14.71,8.92Z"/><path class="cls-1" d="M5.29,11a.5.5,0,0,0-.36,0,15.88,15.88,0,0,0-2.35.6,3.63,3.63,0,0,0-2.4,3.2C.06,16.1,0,17.08,0,18.4a.34.34,0,0,0,.09.24c.65.48,1.48.94,2.21,1.42v-2.6h.07c.13.8.24,1.61.38,2.41,0,.14.09.36.17.38A22.85,22.85,0,0,0,5.85,22.6a24.35,24.35,0,0,1-.47-5.84,6.77,6.77,0,0,1,2.26-5.09c.13-.12.26-.22.43-.36l-.16,0A3.71,3.71,0,0,1,5.29,11Z"/><path class="cls-1" d="M29.62,14.79a3.63,3.63,0,0,0-2.4-3.2,15.75,15.75,0,0,0-2.34-.6.53.53,0,0,0-.37,0,3.69,3.69,0,0,1-2.61.25l-.17,0c.17.14.3.24.43.36a6.73,6.73,0,0,1,2.26,5.09A24.86,24.86,0,0,1,24,22.6a22.85,22.85,0,0,0,2.93-2.35c.08,0,.15-.24.17-.38.13-.8.25-1.6.37-2.41h.07v2.6c.73-.48,1.56-.94,2.21-1.42a.3.3,0,0,0,.09-.24C29.77,17.08,29.75,16.1,29.62,14.79Z"/><path class="cls-1" d="M5,8.69a3.69,3.69,0,0,0,5.08-1.16.56.56,0,0,0,0-.65,5.59,5.59,0,0,1-.53-3.55.71.71,0,0,0-.17-.5,3.38,3.38,0,0,0-2-.94,3.8,3.8,0,0,0-4.11,3A3.68,3.68,0,0,0,5,8.69Z"/><path class="cls-1" d="M24.26,9.11a3.77,3.77,0,0,0,2.66-3.85,3.44,3.44,0,0,0-2.14-3,3.56,3.56,0,0,0-4,.57.51.51,0,0,0-.2.57,5.25,5.25,0,0,1-.53,3.5.59.59,0,0,0,0,.66A3.72,3.72,0,0,0,24.26,9.11Z"/></g></g></svg>
