<svg xmlns="http://www.w3.org/2000/svg" viewBox="0 0 28.26 27.18"><defs><style>.cls-1{fill:#fff;}</style></defs><title>Asset 69</title><g id="Layer_2" data-name="Layer 2"><g id="Layer_1-2" data-name="Layer 1"><path class="cls-1" d="M22.28,15.4a4.15,4.15,0,0,0-2.53-3.69A24.6,24.6,0,0,0,17.26,11a1.6,1.6,0,0,0-1.43.11,1.27,1.27,0,0,1-.6.21,5.71,5.71,0,0,1-3-.36.5.5,0,0,0-.26-.08,12.46,12.46,0,0,0-3.59,1.05,4.21,4.21,0,0,0-2.27,3.21c-.16,1.2-.1,2.44-.18,3.66a.84.84,0,0,0,.54,1c.35.16.81.28,1,.56s.09.77.14,1.17a6.63,6.63,0,0,0,13.19-.79.44.44,0,0,1,.32-.46,6.2,6.2,0,0,0,1-.54.62.62,0,0,0,.25-.43c0-.53,0-1.06,0-1.6h0C22.36,16.88,22.36,16.14,22.28,15.4ZM14.1,26.14a5.6,5.6,0,1,1,5.63-5.58A5.6,5.6,0,0,1,14.1,26.14Z"/><path class="cls-1" d="M13.78,8.71l.45,0a4.24,4.24,0,0,0,4.26-4.2h0a.34.34,0,0,0,0-.1,4.36,4.36,0,1,0-8.71-.17.53.53,0,0,1,0,.13A4.17,4.17,0,0,0,13.78,8.71Z"/><path class="cls-1" d="M7.13,10.93l.41-.31H7.39a3.78,3.78,0,0,1-2.46-.22.6.6,0,0,0-.35,0,16.7,16.7,0,0,0-2.2.51A3.18,3.18,0,0,0,.13,13.61C0,14.75,0,15.9,0,17a.29.29,0,0,0,.09.21,7.11,7.11,0,0,0,2,.9V15.92h.07c.11.7.22,1.39.35,2.08,0,.12.09.31.16.32.75.16,1.49.28,2.31.43,0-1.22,0-2.32,0-3.42A5.62,5.62,0,0,1,7.13,10.93Z"/><path class="cls-1" d="M28.2,13.94a3.3,3.3,0,0,0-2.2-3,12.24,12.24,0,0,0-2-.53,2.45,2.45,0,0,0-.85.1c-.32.06-.65.18-1,.21s-.75,0-1.13,0a5.08,5.08,0,0,1,2.13,3.61c.1.84.09,1.7.12,2.55,0,.59,0,1.19,0,1.87.74-.13,1.41-.26,2.09-.37.26,0,.35-.14.39-.4.09-.69.22-1.37.33-2h.08v2.31l2-1a.39.39,0,0,0,.12-.31C28.25,16,28.28,15,28.2,13.94Z"/><path class="cls-1" d="M4.62,8.49A3.47,3.47,0,0,0,9.4,7.4a.53.53,0,0,0,0-.61,5.18,5.18,0,0,1-.5-3.33A.67.67,0,0,0,8.78,3,3.19,3.19,0,0,0,6.92,2.1,3.61,3.61,0,0,0,3.05,5,3.47,3.47,0,0,0,4.62,8.49Z"/><path class="cls-1" d="M22.76,8.89a3.57,3.57,0,0,0,2.5-3.62,3.25,3.25,0,0,0-2-2.85A3.35,3.35,0,0,0,19.51,3a.48.48,0,0,0-.2.54,5,5,0,0,1-.49,3.29.53.53,0,0,0,0,.61A3.48,3.48,0,0,0,22.76,8.89Z"/><path class="cls-1" d="M15.46,16.92a2.67,2.67,0,0,0-1.34.86l-.27-.25a2.38,2.38,0,0,0-1.63-.7,2.58,2.58,0,0,0-2.54,1.93c0,.18-.09.36-.14.54V20c.13.41.27.81.4,1.21a.23.23,0,0,0,.27.18h1a.24.24,0,0,0,.27-.18c.19-.43.39-.86.59-1.29a.41.41,0,0,1,.39-.3c.22,0,.32.15.39.32s.14.36.21.54l.42,1,.06-.05.31-.55c.21-.36.37-.41.73-.2a2.1,2.1,0,0,0,.06-.24c.13-.6.25-1.2.38-1.79,0-.25.2-.38.4-.37a.4.4,0,0,1,.37.4l.15.9c.09.59.19,1.17.28,1.77h1.88a.25.25,0,0,0,.16-.12,3.22,3.22,0,0,0,.24-2.66A2.53,2.53,0,0,0,15.46,16.92Z"/><path class="cls-1" d="M16,22.19c-.32,0-.44-.11-.49-.42s-.1-.57-.15-.92a1.71,1.71,0,0,0-.07.25,7.16,7.16,0,0,1-.19.8.46.46,0,0,1-.29.27.61.61,0,0,1-.37-.15,1.2,1.2,0,0,1-.18-.26,9.31,9.31,0,0,1-.48.84.55.55,0,0,1-.36.22c-.12,0-.23-.16-.34-.25a.52.52,0,0,1-.06-.13L12.47,21c-.15.31-.28.58-.4.86a.49.49,0,0,1-.53.34c-.3,0-.6,0-.9,0l0,.06,3.52,3.14,3.52-3.14,0-.06Z"/></g></g></svg>
