<svg xmlns="http://www.w3.org/2000/svg" viewBox="0 0 29.75 27"><defs><style>.cls-1{fill:#D5528E;}</style></defs><title>Asset 68</title><g id="Layer_2" data-name="Layer 2"><g id="Layer_1-2" data-name="Layer 1"><path class="cls-1" d="M29.5,7.23a3.35,3.35,0,0,0,0-.47A8.88,8.88,0,0,0,25.1,1a8.23,8.23,0,0,0-9.46,1.34c-.25.23-.47.49-.73.75-.25-.22-.51-.41-.72-.63A7.72,7.72,0,0,0,9,0,8.31,8.31,0,0,0,.67,5.8c0,.12-.07.24-.1.35a4.68,4.68,0,0,1-.17.53,9.26,9.26,0,0,0,.79,7.25c.12.22.25.43.39.64l.16.2a1.08,1.08,0,0,0,.79.15,24.68,24.68,0,0,1,2.72,0,1.17,1.17,0,0,0,1.33-.78c.57-1.3,1.18-2.58,1.76-3.88.26-.57.56-1.08,1.27-1.08s1.06.55,1.3,1.16c.56,1.42,1.14,2.84,1.72,4.25.08.2.09.52.33.55s.35-.32.47-.52c.34-.55.65-1.13,1-1.68s.67-.79,1.12-.57c1.15.56,1.15-.27,1.29-1L17,10.33c.3-1.42.58-2.84.9-4.25.14-.62.5-1.13,1.2-1.12a1.25,1.25,0,0,1,1.21,1.13c0,.19.07.39.1.58.41,2.55.82,5.1,1.21,7.65a.49.49,0,0,0,0,.12.57.57,0,0,0,.66.45q2.59,0,5.19,0a1,1,0,0,0,.49-.1.92.92,0,0,0,.51-.53,15.07,15.07,0,0,0,.67-1.68c.11-.35.22-.69.31-1a.32.32,0,0,1,0-.08A9.3,9.3,0,0,0,29.5,7.23Z"/><path class="cls-1" d="M21.39,17.35a2,2,0,0,1-1.93-1.63c-.14-.81-.26-1.62-.41-2.55a1.87,1.87,0,0,0-.34.88c-.15.72-.28,1.45-.5,2.15-.35,1.12-1.18,1.36-2.08.61a6.57,6.57,0,0,1-.7-.8c-.25.43-.48.85-.71,1.26s-.5.9-.79,1.31c-.72,1-1.62,1-2.28-.08a3.52,3.52,0,0,1-.27-.63L9.54,13.42c-.45,1-.84,1.75-1.19,2.54-.54,1.22-.87,1.43-2.22,1.38a15.75,15.75,0,0,0-1.94,0c2.31,2.24,7.38,7.07,9.6,9.18a1.55,1.55,0,0,0,2.17,0c2.23-2.12,7.31-6.95,9.63-9.21h-4.2Z"/></g></g></svg>
