<svg xmlns="http://www.w3.org/2000/svg" viewBox="0 0 31.92 27.09"><defs><style>.cls-1{fill:#fff;}</style></defs><title>Asset 72</title><g id="Layer_2" data-name="Layer 2"><g id="Layer_1-2" data-name="Layer 1"><path class="cls-1" d="M31.87,4.74c-.05-.26-.15-.5-.41-.55a6.66,6.66,0,0,0-1.89-.11,4.52,4.52,0,0,1-3.68-1.6c-.36-.44-.8-.37-1.16.06A4.21,4.21,0,0,1,23.12,3.7,7.14,7.14,0,0,1,20,4.11c-1-.05-1.1.07-1.12,1.06a15.61,15.61,0,0,0,.34,4c.73,3.2,2.21,5.88,5.25,7.46a1.7,1.7,0,0,0,1.74,0,9.46,9.46,0,0,0,2.87-2.28,12.27,12.27,0,0,0,2.53-5.88A16.73,16.73,0,0,0,31.87,4.74ZM30.46,6h0c-.26,3.06-.82,5.84-3,7.92s-2.18,1.93-4.26,0a10.18,10.18,0,0,1-2.86-6.71c-.16-1.65-.11-1.65,1.56-1.81A5.69,5.69,0,0,0,25,4.22c.25-.2.39-.25.67,0a6.17,6.17,0,0,0,4.05,1.28C30.24,5.46,30.62,5.54,30.46,6Z"/><path class="cls-1" d="M5.91,9.53c0-1.54,0-3.08,0-4.61,0-.63.1-.95.84-.94s.77.38.76.92c0,1.26,0,2.52,0,4C10,6.68,12.39,4.66,14.7,2.6c.43-.38.7-.43,1.12,0,.76.7,1.56,1.36,2.39,2.07.14-.45.13-.94.48-1.11.65-.33.38-.56,0-.87C18,2.09,17.4,1.5,16.73.94,15.25-.32,15.27-.32,13.82,1s-2.92,2.54-4.55,4c0-.64,0-1,0-1.39.1-1-.4-1.4-1.34-1.4s-1.68,0-2.52,0S4.1,2.47,4.12,3.38c0,1.57-.06,3.15,0,4.72a2.36,2.36,0,0,1-1,2.22A16.87,16.87,0,0,0,0,13.22v.84c1.22.51,2-.3,2.74-1s1.71-1.56,2.6-2.28A1.44,1.44,0,0,0,5.91,9.53Z"/><path class="cls-1" d="M24.71,17.26c0,.61,0,1.18,0,1.74,0,.29,0,5.14,0,5.42.05.67-.22.83-.84.81-1.37,0-2.73-.05-4.09,0-.67,0-.92-.14-.89-.85.05-1.47,0-2.94,0-4.41,0-.92-.31-1.35-1.28-1.32-1.54,0-3.08,0-4.61,0-1,0-1.3.39-1.27,1.32.05,1.47,0,2.94,0,4.41,0,.6-.12.87-.8.85q-2.1-.07-4.2,0c-.66,0-.82-.23-.82-.85,0-2.87,0-5.73,0-8.6a1.83,1.83,0,0,1,.66-1.46C8.79,12.4,11,10.46,13.11,8.53c.7-.62,1.37-1.63,2.15-1.73s1.44,1.06,2.18,1.62c.2.14.35.42.61.32s.17-.41.2-.66c.21-1.57-1-2.23-1.93-3.09a1.15,1.15,0,0,0-.22-.22,1.24,1.24,0,0,0-1.76.17C11.16,7.83,8,10.69,4.76,13.56a1.37,1.37,0,0,0-.57,1.06c0,3.81,0,7.62,0,11.43a1.31,1.31,0,0,0,0,.28.9.9,0,0,0,1,.74c2.58,0,5.17,0,7.76,0,.5,0,.67-.16.66-.66,0-1.16,0-2.31,0-3.46,0-2.58,0-2.55,2.57-2.55.73,0,1,.19,1,.94-.05,1.58,0,3.15,0,4.72,0,.87.27,1,1.06,1,1.82-.05,3.63,0,5.45,0,3.12,0,2.76.35,2.88-2.88,0,0,.05-7,0-7C25.66,17.59,25.39,17.64,24.71,17.26Z"/><path class="cls-1" d="M25.34,6.4a5.41,5.41,0,0,0-3.63,1.47c-.51.51.13.67.28,1s.38.06.54-.08a4.08,4.08,0,0,1,5.61-.06c.22.17.38.56.71.07.23-.33.54-.54.07-1A5.69,5.69,0,0,0,25.34,6.4Z"/><path class="cls-1" d="M23.8,9.12c-1,.57-1,.91-.19,1.74,1.19-1.13,2.2-1.24,3.12-.36.16.15.26.66.62.19s.69-.59.14-1.1A3.2,3.2,0,0,0,23.8,9.12Z"/><path class="cls-1" d="M25.3,10.91a.88.88,0,0,0-.8.93v.05a.83.83,0,0,0,.88.78h.05a.83.83,0,0,0,.8-.86.27.27,0,0,0,0-.09A.87.87,0,0,0,25.3,10.91Z"/></g></g></svg>
