<svg xmlns="http://www.w3.org/2000/svg" viewBox="0 0 37.82 27.01"><defs><style>.cls-1{fill:#821646;}</style></defs><title>Asset 67</title><g id="Layer_2" data-name="Layer 2"><g id="Layer_1-2" data-name="Layer 1"><path class="cls-1" d="M34.37,15a7.11,7.11,0,0,0-.85.71C32.31,16.87,31.11,18,29.9,19.2a6.91,6.91,0,0,1-4.6,2.17c-2.38.1-4.75.35-7.12.5a6.18,6.18,0,0,1-2.1.09c-.4-.11-1-.05-1-.67s.61-.52,1.05-.56c3-.3,6-.59,9-.9.72-.08,1.52-.24,1.51-1.14s-.82-1-1.49-1a14.89,14.89,0,0,0-2.67.05,14.46,14.46,0,0,1-8.66-1.3,4.82,4.82,0,0,0-2.89-.72,21.61,21.61,0,0,0-5.8,1.48,1.48,1.48,0,0,0-1,1.55c0,1.41.08,2.83,0,4.23-.06,1,.25,1.37,1.23,1.53C9.67,25.19,14,26,18.29,26.75a9.26,9.26,0,0,0,4.41,0c1.95-.6,3.89-1.25,5.83-1.87a4.7,4.7,0,0,0,2.27-1.52c2.25-2.67,7-8.84,7-8.84C36.54,13.75,35.44,14.28,34.37,15Z"/><path class="cls-1" d="M1.77,17c-1-.11-.82,0-1.77.33v6.92c1,.26.8.42,1.83.34.69,0,1-.22,1-1,0-1.86,0-3.72,0-5.57C2.84,17.29,2.5,17,1.77,17Z"/><path class="cls-1" d="M20.42,11c.48.83.19,2.11.21,3.19.05,1.91,0,1.91,2,1.91.41,0,.81,0,1.22,0s.68-.09.7-.6c.08-2-.25-4,.65-6a10,10,0,0,0,.31-3.31,2,2,0,0,0,0-.6,2,2,0,0,0-2.18-1.74c-.44,0-.89,0-1.34,0-1.81,0-2.54.79-2.32,2.57C19.87,7.91,19.56,9.45,20.42,11Z"/><path class="cls-1" d="M26.7,13.5C26.3,16,26.29,16,28.9,16h1c1.52,0,1.38,0,1.34-1.48,0-1.19-1.16-2.52.3-3.61.11-.08,0-.43,0-.65,0-.82,0-1.63,0-2.45a1.74,1.74,0,0,0-1.36-2c-1.76-.43-3.37-.08-3.74.88a5.8,5.8,0,0,0-.05,4.24A3.89,3.89,0,0,1,26.7,13.5Z"/><path class="cls-1" d="M15.47,14.69c-.11,1.14.26,1.6,1.44,1.34.4-.18,1.22.38,1.28-.35.15-1.92,1-3.69,1-5.63a1.41,1.41,0,0,0-1.25-1.47,7.79,7.79,0,0,0-1.45-.05c-1.35,0-1.72.64-1.75,2S15.59,13.25,15.47,14.69Z"/><path class="cls-1" d="M22.58,3.09a1.58,1.58,0,0,0,1.56-1.56A1.57,1.57,0,0,0,22.56,0H22.5A1.52,1.52,0,0,0,21,1.56v0A1.53,1.53,0,0,0,22.58,3.09Z"/><path class="cls-1" d="M28.9,5.05H29a1.34,1.34,0,0,0,1.3-1.38v-.1A1.35,1.35,0,0,0,28.9,2.29a1.38,1.38,0,0,0,0,2.76Z"/><path class="cls-1" d="M16.93,8c.73,0,1.14-.45,1.25-1.21a1.19,1.19,0,0,0-1.25-1.13,1.17,1.17,0,1,0,0,2.34Z"/></g></g></svg>
