<svg xmlns="http://www.w3.org/2000/svg" viewBox="0 0 19.3 27"><defs><style>.cls-1{fill:#ffffff;}</style></defs><title>Asset 65</title><g id="Layer_2" data-name="Layer 2"><g id="Layer_1-2" data-name="Layer 1"><path class="cls-1" d="M9.64,16.25a2.49,2.49,0,0,0-2.23,2.68v5.39A2.49,2.49,0,0,0,9.64,27a2.49,2.49,0,0,0,2.22-2.68V18.93A2.49,2.49,0,0,0,9.64,16.25Z"/><path class="cls-1" d="M18.37,2.65H14.79a1,1,0,0,0-.65.26h-1a3.6,3.6,0,0,0-7.07,0H5.15a1,1,0,0,0-.65-.26H.92a.92.92,0,0,0,0,1.84H4.5a1,1,0,0,0,.65-.26H6.1A3.59,3.59,0,0,0,8,6.78v.85H5.64a3.18,3.18,0,0,0-3.18,3.16l-.85,9.87a3.19,3.19,0,0,0,3.18,3.17h1.6V18.42a3.25,3.25,0,0,1,6.49,0v5.41h1.6a3.19,3.19,0,0,0,3.18-3.17L17,10.79a3.18,3.18,0,0,0-3.18-3.16H11.25V6.78a3.59,3.59,0,0,0,1.92-2.56h1a1,1,0,0,0,.65.27h3.58a.94.94,0,0,0,.93-.92A.93.93,0,0,0,18.37,2.65Zm-7,7.81c0,.33-.84.6-1.87.6s-1.86-.27-1.86-.6.83-.6,1.86-.6S11.38,10.13,11.38,10.46ZM9.71,5.58a2.15,2.15,0,1,1,2.15-2.15A2.16,2.16,0,0,1,9.71,5.58Z"/></g></g></svg>
