<svg xmlns="http://www.w3.org/2000/svg" viewBox="0 0 29.51 27"><defs><style>.cls-1{fill:#22B9C6;}</style></defs><title>Asset 79</title><g id="Layer_2" data-name="Layer 2"><g id="Layer_1-2" data-name="Layer 1"><path id="Path_3" data-name="Path 3" class="cls-1" d="M23.66,21.54H5.74V24.6a2.18,2.18,0,0,1-3.06,2.21,1.76,1.76,0,0,1-1.3-1.71c0-1,0-2.06,0-3.08a3.31,3.31,0,0,0-.47-1.09,5.49,5.49,0,0,1-.8-1.8C0,16.94,0,14.75,0,12.55c0-1.26.62-1.89,2.21-2.43.4-2.49.82-4.95,1.19-7.42.25-1.64.86-2.73,3-2.7C12,.08,17.49,0,23,0c1.83,0,2.58.59,2.93,2.4.47,2.42.89,4.86,1.37,7.28a1,1,0,0,0,.56.6,2.37,2.37,0,0,1,1.64,2.43c0,2,0,4.1,0,6.15A2.66,2.66,0,0,1,28.59,21a1.49,1.49,0,0,0-.43.93c-.06,1,0,2,0,3a2,2,0,0,1-1.91,2H26a2,2,0,0,1-2.24-1.69,1.51,1.51,0,0,1,0-.3c0-1.05,0-2.1,0-3.16A1.09,1.09,0,0,0,23.66,21.54ZM14.72,9.14h7.51A2.56,2.56,0,0,0,25,7.42c.56-2-.35-5.23-3.52-5.19-4.32.06-8.65,0-13,0-2.45,0-3.51.87-4,3.28s.59,3.61,3,3.61ZM22,13.61H7.86V14.9H22Zm0,3.05H7.86V18H22ZM3.69,11.57a2.09,2.09,0,0,0-2,2.09,2.08,2.08,0,0,0,4.15-.07,2.11,2.11,0,0,0-2.12-2Zm22.08,4.1a2.05,2.05,0,1,0-2.08-2,2.07,2.07,0,0,0,2.08,2Z"/></g></g></svg>
