<svg xmlns="http://www.w3.org/2000/svg" viewBox="0 0 20.07 27"><defs><style>.cls-1{fill:#d92d32;}</style></defs><title>Asset 76</title><g id="Layer_2" data-name="Layer 2"><g id="Layer_1-2" data-name="Layer 1"><path class="cls-1" d="M19.6,20.09a13.7,13.7,0,0,0-6.1-8.78c-.54-.35-.66-.2-.74.37-.31,2.1-.65,4.2-1,6.3a10,10,0,0,0-.29,2.93c.31,2-.59,3-2.64,3.05-1,0-2.08,0-3.11,0-.49,0-.61.16-.62.63,0,1.58,0,1.61,1.52,2.11a20,20,0,0,0,8.16-.24,1,1,0,0,0,.77-1.11c0-1.32.1-2.65.17-4.14a1.45,1.45,0,0,1,.43,1,14.71,14.71,0,0,1,.15,3.11c0,.5.13.67.63.44.85-.38,1.71-.74,2.58-1.09a.75.75,0,0,0,.51-.85A21,21,0,0,0,19.6,20.09Z"/><path class="cls-1" d="M11.93,10.1a5.11,5.11,0,0,0,3.51-6,5,5,0,0,0-3-3.71,5.83,5.83,0,0,0-4.31,0,5.34,5.34,0,0,0-2.6,6.67A5.2,5.2,0,0,0,11.93,10.1Z"/><path class="cls-1" d="M7.44,23.51l1.56,0c1.2,0,1.92-.47,2.15-1.39S11,20.56,10,19.94h0a.83.83,0,0,1-.44-1.09c1-2.24,1.66-4.58,2.47-6.87.14-.39.62-.89.17-1.23s-.85.27-1.16.59-.6.42-1,0c-.9-.88-.92-.85-2-.29l-.56.28A14.27,14.27,0,0,0,.11,20.5a2.14,2.14,0,0,0,2.05,2.89,30.1,30.1,0,0,0,3.8.12Zm-5.38-.76C.89,22.49.4,21.83.69,20.68a13.76,13.76,0,0,1,5.18-7.63c.45-.35.51,0,.62.29q1.2,3.06,2.39,6.15a1.59,1.59,0,0,0,1,1.09h0A1.09,1.09,0,0,1,10.55,22a1.15,1.15,0,0,1-1.19.92c-1.07,0-2.13,0-3.43,0h0A23.82,23.82,0,0,1,2.06,22.75Z"/></g></g></svg>
