<svg xmlns="http://www.w3.org/2000/svg" viewBox="0 0 25.15 27.02"><defs><style>.cls-1{fill:#fff;}</style></defs><title>Asset 77</title><g id="Layer_2" data-name="Layer 2"><g id="Layer_1-2" data-name="Layer 1"><polygon class="cls-1" points="19.43 2.85 19.43 2.85 19.43 2.85 19.43 2.85"/><path class="cls-1" d="M7.79,5.74c.52,0,.79.1.7.67a1.77,1.77,0,0,0,0,.46c.09.55-.09.78-.69.74-.92-.06-1.87.1-2.77,0C3.49,7.33,3,8.5,2.2,9.38H23.78c-.32-.37-.61-.65-.84-1a1.79,1.79,0,0,0-1.76-.82c-1.05.07-2.11,0-3.16,0-.4,0-.57-.12-.53-.52a2.15,2.15,0,0,0,0-.62c-.08-.59.17-.73.74-.72,2.05,0,4.11,0,6.16,0,.52,0,.64-.16.63-.64,0-1.7,0-3.4,0-5.09L0,0C0,1.67,0,3.34,0,5c0,.56.11.73.71.73C3.07,5.71,5.43,5.75,7.79,5.74ZM21.09.94h.06a1.18,1.18,0,0,1,1.19,1.17.49.49,0,0,1,0,.12A1.14,1.14,0,0,1,21.2,3.37c-.81,0-1.28.13-1.1,1.07,0,.25-.09.36-.36.36s-.31-.2-.31-.41V2.47C19.43.84,19.43.84,21.09.94ZM13.4,2.59A1.73,1.73,0,0,1,15.21.94a1.93,1.93,0,0,1,0,3.86h-.32A1.75,1.75,0,0,1,13.4,2.85h0A1.13,1.13,0,0,1,13.4,2.59Zm2.17,3.15c.64,0,.83.2.75.79a.81.81,0,0,0,0,.31c.08.57-.1.82-.74.78-.87-.06-1.74,0-2.61,0s-1.8,0-2.7,0c-.49,0-.58-.16-.58-.61,0-1.25,0-1.25,1.19-1.24C12.44,5.76,14,5.79,15.57,5.74ZM8,1.25C8,1,8.13.94,8.34.94s.35.06.35.3a2.41,2.41,0,0,1,0,.38c-.14.74.2.88.89.88s.84-.19.75-.78a2.54,2.54,0,0,1,0-.39c0-.23,0-.39.33-.4s.35.14.35.38V2.86h0V4.4c0,.23,0,.39-.34.4s-.35-.14-.34-.38a2.44,2.44,0,0,1,0-.54c.11-.66-.19-.79-.81-.81s-.94.19-.83.86a4.86,4.86,0,0,1,0,.54c0,.22-.11.32-.33.32S8,4.73,8,4.49C8,3.41,8,2.33,8,1.25ZM2.87,4c-.09-.19-.28-.45,0-.59l.1,0a.42.42,0,0,1,.53.27.89.89,0,0,0,1.16.47.52.52,0,0,0,.42-.49c0-.23-.17-.36-.38-.41L3.87,3c-.59-.16-1.06-.45-1-1.14S3.45.93,4.38.93h0a1.33,1.33,0,0,1,1.09.6c.12.19.28.44,0,.6l-.07,0A.39.39,0,0,1,4.9,2,.76.76,0,0,0,4,1.56a.43.43,0,0,0-.42.38c0,.21.15.32.33.37L5,2.63a1,1,0,0,1,.77,1,1,1,0,0,1-.84,1A1.66,1.66,0,0,1,2.87,4Z"/><path class="cls-1" d="M24.09,26,1.83,26C.77,26,.77,26,.77,27l24.38,0C25.15,26,25.15,26,24.09,26Z"/><path class="cls-1" d="M11.29,25.07c1.8,0,3.6,0,5.39,0h5.48c.4,0,.65,0,.65-.56,0-3.16,0-6.32,0-9.48,0-.33,0-.54-.44-.51a3.26,3.26,0,0,1-1.83-.5.66.66,0,0,0-.76,0,3.88,3.88,0,0,1-4,.07.89.89,0,0,0-.94,0,3.91,3.91,0,0,1-3.82,0,.91.91,0,0,0-1,0,2.85,2.85,0,0,1-2.37.41,5.92,5.92,0,0,0-3.94,0c-.5.15-.64.27-.64.76,0,2.7,0,5.4,0,8.1,0,1.75,0,1.72,1.78,1.74.55,0,.67-.16.67-.69,0-2.46,0-4.93,0-7.4,0-.84.39-1.22,1.22-1.23H8.93c1.36,0,1.6.24,1.6,1.62,0,2.31,0,4.63,0,6.94C10.5,24.94,10.7,25.08,11.29,25.07Zm1.47-5.44c.07-1.1,0-2.21,0-3.31,0-.43.12-.58.56-.57,1,0,2.06,0,3.09,0h0c1,0,2,0,3,0,.41,0,.54.12.53.53,0,1.2,0,2.41,0,3.62,0,.49-.16.65-.62.59a2.73,2.73,0,0,0-.7,0c-.49.07-.66-.15-.57-.61s-.14-.75-.72-.71c-.74,0-1.49,0-2.23,0-.32,0-.52.09-.44.43.19.91-.35.88-1,.9S12.71,20.38,12.76,19.63Zm1.13,1.73c1.7,0,3.39,0,5.08,0,.64,0,1,0,1,.85s-.36.83-1,.8c-.89,0-1.79,0-2.69,0h0c-1,0-2,0-3,0-.36,0-.54-.05-.56-.49C12.74,21.36,12.71,21.36,13.89,21.36Z"/><path class="cls-1" d="M25,11.67c.1-.91.05-1-.85-1l-22,0c-1.18,0-1.43.38-1,1.51a1.78,1.78,0,0,0,.85,1,1.51,1.51,0,0,0,.28.15A2.64,2.64,0,0,0,5.81,12c1.41,2.06,3.56,2.08,4.77,0,1.49,2,3.57,2,4.79,0,1.53,2,3.57,2,4.79,0,.23.08.22.33.34.49a2.66,2.66,0,0,0,2.9.88A2.05,2.05,0,0,0,25,11.67Z"/><path class="cls-1" d="M15.2,4.18c.66,0,1.1-.47,1.13-1.27s-.39-1.33-1-1.35-1.1.42-1.11,1.26S14.53,4.15,15.2,4.18Z"/><path class="cls-1" d="M20.62,2.81c.47,0,.93-.05.94-.64s-.36-.61-.8-.61-.75,0-.64.53S20,2.84,20.62,2.81Z"/><path class="cls-1" d="M16.38,18.73c.59,0,1-.29,1-.9S16.94,17,16.33,17s-1,.31-1,.9S15.79,18.73,16.38,18.73Z"/></g></g></svg>
