<svg xmlns="http://www.w3.org/2000/svg" viewBox="0 0 23.8 27.13"><defs><style>.cls-1{fill:#9ECB3B;}</style></defs><title>Asset 78</title><g id="Layer_2" data-name="Layer 2"><g id="Layer_1-2" data-name="Layer 1"><path class="cls-1" d="M20.23,5.59c-.35-.45-.27-.66.1-1,.71-.64,1.39-1.32,2.08-2,.28-.28.49-.6.15-.94s-.66-.11-.94.16c-.73.73-1.46,1.45-2.18,2.2-.19.2-.29.29-.52,0C15.43.22,8.51-.29,5.89.12A32.16,32.16,0,0,0,0,1.56c.54.3,1,.52,1.38.78,3.16,2,5.48,4.41,5,8.49,0,.25,0,.41.3.44a9.57,9.57,0,0,1,2.7.63c.35.15.49-.23.62-.45s-.16-.31-.31-.4A4.6,4.6,0,0,0,8,10.57c-.53-.05-.67-.27-.67-.78A8.57,8.57,0,0,0,3.92,3c-.4-.33-.83-.64-1.34-1A7.44,7.44,0,0,1,5.07,2c2.36.46,4.21,1.56,4.79,4.1a.84.84,0,0,0,.73.66,8.54,8.54,0,0,1,6.49,6.48.9.9,0,0,0,.73.76,5.06,5.06,0,0,1,3.64,3.26,12.59,12.59,0,0,1,.64,4.87h0l0,.34c.16-.05.18-.2.21-.34h0a14.82,14.82,0,0,0,1.43-5.42A15.53,15.53,0,0,0,20.23,5.59Z"/><path class="cls-1" d="M14.25,16.83a16.07,16.07,0,0,0-1.7,0h-.21A1.55,1.55,0,0,0,11,18.55a17.93,17.93,0,0,1,.12,2.54c-.08.81.6,1.31.61,2,0,1.34.08,2.67.11,4h3.26c.19-1.71-.38-3.43.42-5.17a9.6,9.6,0,0,0,.32-3.43,2,2,0,0,0,0-.25A1.53,1.53,0,0,0,14.25,16.83Z"/><path class="cls-1" d="M20.81,19.8a1.34,1.34,0,0,0-1.3-1.36,16.08,16.08,0,0,0-1.7,0h0a1.33,1.33,0,0,0-1.34,1.31c0,1,0,1.9,0,2.86,0,.21,0,.44.28.46s.32.27.28.54c-.19,1.18-.36,2.35-.54,3.53h4.18c-.12-1.06-.26-2.12-.38-3.18,0-.38-.35-.88.4-1,.21,0,.14-.3.14-.47C20.82,21.6,20.83,20.7,20.81,19.8Z"/><path class="cls-1" d="M8.4,20.75c-1.08,0-1.45.47-1.43,1.53,0,1.62.78,3.14.67,4.77v.08H10c-.19-.06-.08-.2-.09-.31-.14-1.27.49-2.42.65-3.64C10.81,21.05,10.56,20.72,8.4,20.75Z"/><path class="cls-1" d="M4.39,25.31A1.74,1.74,0,0,1,2,25.09a1.66,1.66,0,0,1,.29-2.29l9.22-9.26c.88-.88,1.76-1.74,2.62-2.63.25-.26.64-.58.25-1s-.73-.16-1.05.16q-6,6-12,12A2.8,2.8,0,0,0,.5,24.17a2.56,2.56,0,0,0,1.42,2.3A3,3,0,0,0,5,26.24c.33-.23.62-.56.31-1S4.7,25.09,4.39,25.31Z"/><path class="cls-1" d="M13.37,13.62a1.26,1.26,0,0,0-1.26,1.24V15a1.25,1.25,0,0,0,1.26,1.26h.06a1.3,1.3,0,0,0,1.3-1.28v0a1.3,1.3,0,0,0-1.33-1.26Z"/><polygon class="cls-1" points="18.61 15.51 18.61 15.51 18.61 15.51 18.61 15.51"/><path class="cls-1" d="M17.44,16.73a1.18,1.18,0,0,0,1.22,1.13h.07a1.15,1.15,0,0,0,1.08-1.2v0a1.16,1.16,0,0,0-1.2-1.13h0A1.17,1.17,0,0,0,17.44,16.73Z"/><path class="cls-1" d="M8.76,18.29a1,1,0,0,0-1,1v0a1,1,0,0,0,1,.94h.08a1,1,0,0,0,.93-1,.93.93,0,0,0-.88-1Z"/></g></g></svg>
