<svg xmlns="http://www.w3.org/2000/svg" viewBox="0 0 30.94 27"><defs><style>.cls-1{fill:#9769DF;}</style></defs><title>Asset 73</title><g id="Layer_2" data-name="Layer 2"><g id="Layer_1-2" data-name="Layer 1"><path class="cls-1" d="M28.56,7.15a19.76,19.76,0,0,0-3.69,1.74c-.59.35-2.63-.36-2.7-1,0-.49-.17-.4-.5-.4-.52,0-1.17.09-1-.83.06-.32-.3-.25-.44-.18-.46.27-.78,0-1.14-.2s-.73-.4-1.07-.63c-.54-.35-.95,0-1.27.31s.11.56.27.78c1.05,1.4,2.1,2.8,3.19,4.17.35.43.32.63-.15.94A32.64,32.64,0,0,0,17,14.1c-.83.7-1.57,1.25-2.56.3h0a.4.4,0,0,0-.57,0c-.24.23,0,.36.15.5a10.41,10.41,0,0,1,1.77,3.06c.07.19.08.47.37.41s.24-.31.24-.52,0-.48,0-.71c-.08-.59.2-.85.73-1a30,30,0,0,0,4.16-1.8c.58-.3.88-.34,1.15.39.59,1.61,1.35,3.16,1.93,4.77.31.86.67.58,1.14.26a.89.89,0,0,0,.32-.78c.05-.8-.29-1.68.5-2.33a.24.24,0,0,0,.06-.11.21.21,0,0,0-.16-.24c-.85-.29-.37-.79-.18-1.22.08-.17.4-.43.24-.49-1-.37-.33-1.16-.48-1.73s.15-1,.71-1.34a14.29,14.29,0,0,0,4.24-3.33,6.19,6.19,0,0,0,.22-1A3,3,0,0,0,28.56,7.15Z"/><path class="cls-1" d="M6.12,20.2a30.69,30.69,0,0,0,8.43-1.67c.85-.28,1-.79.3-1.44a1.61,1.61,0,0,1-.54-.95c-.15-.84-.75-1.06-1.53-.66-1.27.64-2.56,1.24-3.88,1.76a13.48,13.48,0,0,1-5,1.12H3.66c-1.74,0-2.88-1-3.19-3.11-.1-.67,0-2.1,0-2.78,0,0-2.07,6.48,2.3,7.32A9.4,9.4,0,0,0,6.12,20.2Z"/><path class="cls-1" d="M2.22,17.08a.93.93,0,0,0,1.1.72,16.6,16.6,0,0,1-.71-3.18c-.07-.56.11-.73.66-.69.77,0,1.55,0,2.31,0s1.76-.32,2.24.14.28,1.38.39,2.11a.57.57,0,0,0,0,.18c.11.18-.12.61.36.52l.12,0a.49.49,0,0,0,.33-.61c-.07-.5-.09-1-.18-1.5s0-.91.74-.87a14.31,14.31,0,0,0,3.46,0c1.07-.21,2,.8,3.1.08a5,5,0,0,0,1.29-.9,6,6,0,0,0-.85,0c-.77.13-1-.15-1-1s0-1.84,0-2.76c0-1.47,0-1.47,1.29-1.88-.16-.36-.34-.71-.82-.65s-.47-.11-.47-.45c0-1.66,0-3.31,0-5.15a16.71,16.71,0,0,1,3.21,3.35c.49.63.64,1.76,1.88,1.42.67.85,1.28.14,1.92-.06s1.28-1.2,2-.83,1,1.21,1.48,1.85c.19.27.24.72.77.43s.09-.62-.05-.85C23.9,2,19.82-.27,14.4,0A13.41,13.41,0,0,0,2.2,17S2.21,17.05,2.22,17.08ZM23.93,4.26h0l-2.7,1.37c-.32.16-.6.21-.83-.18A17.74,17.74,0,0,0,16.7.88,13,13,0,0,1,23.93,4.26Zm-9.11,8.12c0,.6-.22.69-.73.67-.77,0-1.54,0-2.32,0h0c-.8,0-1.6,0-2.4,0-.44,0-.56-.12-.53-.56a16.42,16.42,0,0,1,1.27-5.16c.15-.37.39-.4.71-.3a14.08,14.08,0,0,0,3.41.58c.46,0,.6.23.59.67C14.8,9.65,14.78,11,14.82,12.38Zm0-11.17h0c0,1.85,0,3.5,0,5.15,0,.46-.27.45-.58.42a19.91,19.91,0,0,1-3-.49c-.55-.13-.5-.33-.27-.73A16.13,16.13,0,0,1,14.81,1.21ZM13.59,1A22.55,22.55,0,0,0,10.05,5.5c-.2.35-.47.25-.77.13A14,14,0,0,1,6.62,4.17,13.11,13.11,0,0,1,13.59,1ZM5.67,5.2l.06-.08a.5.5,0,0,1,.7,0A12.26,12.26,0,0,0,9,6.43c.38.14.41.31.25.66A16.31,16.31,0,0,0,8,12.51c0,.43-.16.55-.58.54-.73,0-1.48,0-2.22,0h0c-.71,0-1.42,0-2.13,0-.4,0-.51-.14-.47-.52A12.65,12.65,0,0,1,5.67,5.2Z"/><path class="cls-1" d="M28.24,10.93h0a.6.6,0,0,0-.41.74c.06.4.24.91.08,1.21s-.81.13-1.23.17-.41.17-.41.45.16.42.45.4.42,0,.62,0c.52-.06.67.14.62.65a13.13,13.13,0,0,1-3,7.18c-.3.35-.51.32-.87.1a23,23,0,0,0-2.36-1.24c-.45-.2-.57-.35-.37-.84a23.9,23.9,0,0,0,1-3.32,1.74,1.74,0,0,0-.6-1.77,18.33,18.33,0,0,1-1.18,4.73c-.21.55-.43.65-1,.49-.7-.22-1.46-.27-2.17-.45s-1.45.22-1.86-.65c-.07-.14-.45,0-.53.16-.16.43-.5.32-.81.37a18.3,18.3,0,0,0-7.38,2.37c-.61.4-1,.35-1.35-.24s-.77-1.06-1.56-.85c0,0,0,.08,0,.11A2.28,2.28,0,0,0,4,21,13.17,13.17,0,0,0,16,27c.43,0,.85-.06,1.27-.12A13.45,13.45,0,0,0,28.62,11.56C28.59,11.32,28.7,10.85,28.24,10.93ZM6.71,22.75h0a12.69,12.69,0,0,1,2.63-1.44c.22-.1.44-.17.62.1a20,20,0,0,0,3.46,4.32C11.77,26.08,8.29,24.48,6.71,22.75Zm8.1,3a15.35,15.35,0,0,1-3.93-4.52c-.2-.35,0-.45.31-.53a15.77,15.77,0,0,1,3.06-.51c.26,0,.56-.07.56.36Zm.85,0c0-1.83,0-3.43,0-5,0-.48.16-.63.61-.59a16.73,16.73,0,0,1,3.06.52c.3.08.53.15.32.52A15.71,15.71,0,0,1,15.66,25.78Zm1.39.16a21.73,21.73,0,0,0,3.42-4.5c.18-.32.43-.25.68-.14a14.31,14.31,0,0,1,2.69,1.47A11.89,11.89,0,0,1,17.05,25.94Z"/></g></g></svg>
