<?xml version="1.0" encoding="utf-8"?>
<!-- Generator: Adobe Illustrator 23.0.2, SVG Export Plug-In . SVG Version: 6.00 Build 0)  -->
<svg version="1.1" id="Layer_1" xmlns="http://www.w3.org/2000/svg" xmlns:xlink="http://www.w3.org/1999/xlink" x="0px" y="0px"
	 viewBox="0 0 182.8 93" style="enable-background:new 0 0 182.8 93;" xml:space="preserve">
<style type="text/css">
	.st0{fill:#1C3E20;}
	.st1{fill:#FFFFFF;}
	.st2{fill:url(#SVGID_1_);}
	.st3{fill:url(#SVGID_2_);}
	.st4{fill:#030303;}
</style>
<g>
	<rect x="0.1" y="75.1" class="st0" width="182.7" height="17.9"/>
	<g>
		<path class="st1" d="M7,79.3h1.8l1.1,5h0l1-5h1.6l1,4.9h0l1-4.9h1.8l-2,8.2h-1.7l-0.8-3.7c-0.1-0.4-0.2-0.8-0.2-1.2h0
			c-0.1,0.6-0.2,1.1-0.2,1.3l-0.8,3.6H9L7,79.3z"/>
		<path class="st1" d="M20.8,85.8h1.5c-0.3,1.3-1,1.9-2.2,1.9c-0.7,0-1.3-0.3-1.7-0.8c-0.4-0.5-0.6-1.3-0.6-2.3
			c0-0.9,0.2-1.6,0.6-2.2c0.4-0.5,1-0.8,1.7-0.8c0.4,0,0.8,0.1,1.2,0.4c0.4,0.3,0.7,0.6,0.8,1c0.2,0.4,0.3,1.1,0.3,2h-3
			c0,0.8,0.3,1.3,0.7,1.3c0.2,0,0.3-0.1,0.4-0.2S20.7,86,20.8,85.8z M19.4,84.2h1.3c0-0.4-0.1-0.7-0.2-0.9c-0.1-0.2-0.3-0.3-0.5-0.3
			c-0.2,0-0.4,0.1-0.5,0.3C19.5,83.5,19.4,83.8,19.4,84.2z"/>
		<path class="st1" d="M29.3,79.3h3.8v1.8h-1.9v1.5h1.7v1.7h-1.7v1.5h1.9v1.8h-3.8V79.3z"/>
		<path class="st1" d="M37.4,81.9v0.8h0c0.4-0.6,0.9-1,1.5-1c0.4,0,0.7,0.1,0.9,0.4c0.2,0.3,0.3,0.6,0.3,1.1v4.4h-1.8v-3.5
			c0-0.2,0-0.4-0.1-0.5c-0.1-0.1-0.2-0.2-0.4-0.2c-0.4,0-0.6,0.2-0.6,0.7v3.4h-1.8v-5.7H37.4z"/>
		<path class="st1" d="M43.1,85.7c0.6,0.4,1.1,0.5,1.3,0.5c0.1,0,0.3,0,0.4-0.1c0.1-0.1,0.1-0.2,0.1-0.3c0-0.1,0-0.2-0.1-0.3
			c-0.1-0.1-0.4-0.2-0.9-0.4c-0.4-0.2-0.7-0.4-0.9-0.7c-0.2-0.3-0.3-0.6-0.3-1c0-0.5,0.2-1,0.6-1.4c0.4-0.4,0.9-0.5,1.4-0.5
			c0.6,0,1.3,0.2,2.1,0.7l-0.7,1.3c-0.5-0.3-1-0.5-1.3-0.5c-0.3,0-0.4,0.1-0.4,0.4c0,0.1,0.1,0.2,0.2,0.3c0.1,0.1,0.3,0.2,0.6,0.3
			c0.5,0.2,0.9,0.4,1.2,0.7c0.2,0.3,0.4,0.6,0.4,1c0,0.6-0.2,1-0.6,1.4c-0.4,0.4-0.9,0.6-1.5,0.6c-0.7,0-1.3-0.2-2.1-0.7L43.1,85.7z
			"/>
		<path class="st1" d="M48.9,81.9h1.8v3.7c0,0.2,0,0.3,0.1,0.5c0.1,0.1,0.2,0.2,0.4,0.2c0.3,0,0.5-0.3,0.5-0.8v-3.6h1.8v3.3
			c0,0.8-0.2,1.5-0.6,1.9c-0.4,0.4-1,0.7-1.7,0.7c-0.8,0-1.4-0.2-1.8-0.7c-0.4-0.5-0.5-1-0.5-1.7V81.9z"/>
		<path class="st1" d="M57.9,81.9v1h0c0.4-0.7,0.9-1.1,1.4-1.1c0.1,0,0.2,0,0.3,0v1.8c-0.2,0-0.4-0.1-0.6-0.1c-0.7,0-1,0.4-1,1.3
			v2.8h-1.8v-5.7H57.9z"/>
		<path class="st1" d="M64.4,85.8h1.5c-0.3,1.3-1,1.9-2.2,1.9c-0.7,0-1.3-0.3-1.7-0.8s-0.6-1.3-0.6-2.3c0-0.9,0.2-1.6,0.6-2.2
			c0.4-0.5,1-0.8,1.7-0.8c0.4,0,0.8,0.1,1.2,0.4c0.4,0.3,0.7,0.6,0.8,1c0.2,0.4,0.3,1.1,0.3,2h-3c0,0.8,0.3,1.3,0.7,1.3
			c0.2,0,0.3-0.1,0.4-0.2S64.4,86,64.4,85.8z M63.1,84.2h1.3c0-0.4-0.1-0.7-0.2-0.9C64.2,83.1,64,83,63.8,83c-0.2,0-0.4,0.1-0.5,0.3
			C63.2,83.5,63.1,83.8,63.1,84.2z"/>
		<path class="st1" d="M68.6,85.7h1.7l-1.6,3.5h-1.2L68.6,85.7z"/>
		<path class="st1" d="M76.4,79.3h2.1c0.5,1.2,0.8,2.1,1,2.7h0c0.2-0.7,0.5-1.6,1-2.7h2.1l-2.2,4.5v3.7h-1.9v-3.7L76.4,79.3z"/>
		<path class="st1" d="M86.3,81.7c0.8,0,1.4,0.3,1.9,0.8c0.4,0.5,0.6,1.3,0.6,2.3c0,1-0.2,1.7-0.7,2.2c-0.4,0.5-1.1,0.8-1.8,0.8
			c-0.8,0-1.4-0.3-1.8-0.8c-0.4-0.5-0.7-1.3-0.7-2.2c0-1,0.2-1.7,0.6-2.3C84.9,82,85.5,81.7,86.3,81.7z M86.3,86.2
			c0.2,0,0.4-0.1,0.5-0.3c0.1-0.2,0.2-0.6,0.2-1.1c0-0.5-0.1-0.9-0.2-1.1c-0.1-0.2-0.3-0.3-0.5-0.3c-0.2,0-0.4,0.1-0.5,0.3
			c-0.1,0.2-0.2,0.6-0.2,1.1C85.6,85.7,85.8,86.2,86.3,86.2z"/>
		<path class="st1" d="M91.1,81.9h1.8v3.7c0,0.2,0,0.3,0.1,0.5c0.1,0.1,0.2,0.2,0.4,0.2c0.3,0,0.5-0.3,0.5-0.8v-3.6h1.8v3.3
			c0,0.8-0.2,1.5-0.6,1.9c-0.4,0.4-1,0.7-1.7,0.7c-0.8,0-1.4-0.2-1.8-0.7c-0.4-0.5-0.5-1-0.5-1.7V81.9z"/>
		<path class="st1" d="M105.5,87.6v-0.7h0c-0.2,0.3-0.4,0.6-0.6,0.7c-0.2,0.2-0.4,0.2-0.7,0.2c-0.5,0-1-0.3-1.3-0.8
			c-0.3-0.6-0.5-1.3-0.5-2.2c0-0.9,0.2-1.6,0.5-2.2s0.8-0.8,1.3-0.8c0.3,0,0.5,0.1,0.7,0.2c0.2,0.1,0.4,0.4,0.6,0.7h0v-0.7h1.8v5.7
			H105.5z M105.5,84.7c0-0.9-0.2-1.4-0.7-1.4c-0.5,0-0.7,0.5-0.7,1.4c0,1,0.2,1.5,0.7,1.5C105.2,86.2,105.5,85.7,105.5,84.7z"/>
		<path class="st1" d="M111.6,81.9v1h0c0.4-0.7,0.9-1.1,1.4-1.1c0.1,0,0.2,0,0.3,0v1.8c-0.2,0-0.4-0.1-0.6-0.1c-0.7,0-1,0.4-1,1.3
			v2.8h-1.8v-5.7H111.6z"/>
		<path class="st1" d="M118.2,85.8h1.5c-0.3,1.3-1,1.9-2.2,1.9c-0.7,0-1.3-0.3-1.7-0.8c-0.4-0.5-0.6-1.3-0.6-2.3
			c0-0.9,0.2-1.6,0.6-2.2c0.4-0.5,1-0.8,1.7-0.8c0.4,0,0.8,0.1,1.2,0.4c0.4,0.3,0.7,0.6,0.8,1c0.2,0.4,0.3,1.1,0.3,2h-3
			c0,0.8,0.3,1.3,0.7,1.3c0.2,0,0.3-0.1,0.4-0.2C118.1,86.1,118.2,86,118.2,85.8z M116.9,84.2h1.3c0-0.4-0.1-0.7-0.2-0.9
			c-0.1-0.2-0.3-0.3-0.5-0.3c-0.2,0-0.4,0.1-0.5,0.3C116.9,83.5,116.9,83.8,116.9,84.2z"/>
		<path class="st1" d="M126.8,79.3h1.9v8.2h-1.9V79.3z"/>
		<path class="st1" d="M133.3,81.9v0.8h0c0.4-0.6,0.9-1,1.5-1c0.4,0,0.7,0.1,0.9,0.4c0.2,0.3,0.3,0.6,0.3,1.1v4.4h-1.8v-3.5
			c0-0.2,0-0.4-0.1-0.5c-0.1-0.1-0.2-0.2-0.4-0.2c-0.4,0-0.6,0.2-0.6,0.7v3.4h-1.8v-5.7H133.3z"/>
		<path class="st1" d="M139,85.7c0.6,0.4,1.1,0.5,1.3,0.5c0.1,0,0.3,0,0.4-0.1c0.1-0.1,0.1-0.2,0.1-0.3c0-0.1,0-0.2-0.1-0.3
			c-0.1-0.1-0.4-0.2-0.9-0.4c-0.4-0.2-0.7-0.4-0.9-0.7c-0.2-0.3-0.3-0.6-0.3-1c0-0.5,0.2-1,0.6-1.4c0.4-0.4,0.9-0.5,1.4-0.5
			c0.6,0,1.3,0.2,2.1,0.7l-0.7,1.3c-0.5-0.3-1-0.5-1.3-0.5c-0.3,0-0.4,0.1-0.4,0.4c0,0.1,0.1,0.2,0.2,0.3c0.1,0.1,0.3,0.2,0.6,0.3
			c0.5,0.2,0.9,0.4,1.2,0.7c0.2,0.3,0.4,0.6,0.4,1c0,0.6-0.2,1-0.6,1.4c-0.4,0.4-0.9,0.6-1.5,0.6c-0.7,0-1.3-0.2-2.1-0.7L139,85.7z"
			/>
		<path class="st1" d="M144.9,81.9h1.8v3.7c0,0.2,0,0.3,0.1,0.5c0.1,0.1,0.2,0.2,0.4,0.2c0.3,0,0.5-0.3,0.5-0.8v-3.6h1.8v3.3
			c0,0.8-0.2,1.5-0.6,1.9c-0.4,0.4-1,0.7-1.7,0.7c-0.8,0-1.4-0.2-1.8-0.7c-0.4-0.5-0.5-1-0.5-1.7V81.9z"/>
		<path class="st1" d="M153.8,81.9v1h0c0.4-0.7,0.9-1.1,1.4-1.1c0.1,0,0.2,0,0.3,0v1.8c-0.2,0-0.4-0.1-0.6-0.1c-0.7,0-1,0.4-1,1.3
			v2.8h-1.8v-5.7H153.8z"/>
		<path class="st1" d="M160.3,85.8h1.5c-0.3,1.3-1,1.9-2.2,1.9c-0.7,0-1.3-0.3-1.7-0.8c-0.4-0.5-0.6-1.3-0.6-2.3
			c0-0.9,0.2-1.6,0.6-2.2c0.4-0.5,1-0.8,1.7-0.8c0.4,0,0.8,0.1,1.2,0.4c0.4,0.3,0.7,0.6,0.8,1c0.2,0.4,0.3,1.1,0.3,2h-3
			c0,0.8,0.3,1.3,0.7,1.3c0.2,0,0.3-0.1,0.4-0.2S160.3,86,160.3,85.8z M159,84.2h1.3c0-0.4-0.1-0.7-0.2-0.9
			c-0.1-0.2-0.3-0.3-0.5-0.3c-0.2,0-0.4,0.1-0.5,0.3S159,83.8,159,84.2z"/>
		<path class="st1" d="M167.1,78.9h1.8v8.7h-1.8v-0.7h0c-0.4,0.6-0.8,0.9-1.4,0.9c-0.5,0-1-0.3-1.3-0.8c-0.3-0.6-0.5-1.3-0.5-2.2
			c0-0.9,0.2-1.7,0.5-2.2c0.3-0.5,0.8-0.8,1.3-0.8c0.5,0,0.9,0.3,1.4,0.8V78.9z M167.1,84.7c0-0.9-0.2-1.4-0.7-1.4
			c-0.5,0-0.7,0.5-0.7,1.5c0,0.4,0.1,0.8,0.2,1c0.1,0.2,0.3,0.4,0.5,0.4c0.2,0,0.4-0.1,0.5-0.4C167.1,85.5,167.1,85.1,167.1,84.7z"
			/>
		<path class="st1" d="M171.8,86.8c0-0.3,0.1-0.5,0.3-0.7c0.2-0.2,0.4-0.3,0.7-0.3s0.5,0.1,0.7,0.3c0.2,0.2,0.3,0.4,0.3,0.7
			c0,0.3-0.1,0.5-0.3,0.7c-0.2,0.2-0.4,0.3-0.7,0.3c-0.3,0-0.5-0.1-0.7-0.3C171.9,87.3,171.8,87,171.8,86.8z M171.9,79.3h1.8v5.9
			h-1.8V79.3z"/>
	</g>
	<g>
		<g>
			<g>
				<g>
					<g>
						<linearGradient id="SVGID_1_" gradientUnits="userSpaceOnUse" x1="28.0985" y1="55.35" x2="45.8311" y2="10.0195">
							<stop  offset="0" style="stop-color:#F69320"/>
							<stop  offset="1" style="stop-color:#F06024"/>
						</linearGradient>
						<path class="st2" d="M72,37.3c-0.2-0.5-0.5-2.1-0.5-2.1C68.2,19,60.3,13.5,60.3,13.5c-10.3,6.6-13,17.8-13,17.8
							C41.9,20,47.3,6,47.3,6L41,5.8c0,0-0.6-0.6-1.6-2.2c-1-1.6-2.8-3.4-7.4-3.5S20.7,0.8,12.5,6.9C4.3,13,1.2,22,0.3,27.9
							c-0.9,5.9,0.4,14.3,8,20.5c7.6,6.2,18.5,2.7,18.5,2.7v-5.4l-0.4,0c-3.6,0.4-6.9,0.4-9.2-0.2c-8.4-2.3-9-10-9-10
							c-0.5-10,8.1-14.3,8.1-14.3l1.5,1.1c-5.2,4.3-5,9.4-4.7,11.7c0.4,3.2,2.2,3.5,2.2,3.5c-0.4-4.9,1.4-7.2,1.4-7.2
							c3.6-5.4,9.8-5.5,9.8-5.5c5.4,0.4,5.8,3.8,5.5,6.2c-0.2,2.4-2,7.9-2,7.9l1.8-2c0.3,1,0,2.9-1.5,7c-1.5,4.1-1.3,9.1-1.3,9.1
							h13.2c0.6-1.3,1-5.3,1.6-10c0.7-4.7,3.5-5.8,3.5-5.8c1.5-0.1,4.1-0.5,8,3.5c3.9,4,4.2,7.9,4.2,7.9c-0.4-0.6-1.3-1.5-1.3-1.5
							c1,2.5,0.5,5.9,0.5,5.9h9c3.6-6.6,1.7-15.8,1.7-15.8c2.4,1,2.8,5.8,2.8,5.8C73.2,40.5,72.2,37.9,72,37.3z M22.1,13.1
							c-0.6,0-1.1-0.5-1.1-1.1s0.5-1.1,1.1-1.1c0.6,0,1.1,0.5,1.1,1.1S22.7,13.1,22.1,13.1z"/>
					</g>
					<g>
						<linearGradient id="SVGID_2_" gradientUnits="userSpaceOnUse" x1="16.4822" y1="54.102" x2="22.21" y2="33.7366">
							<stop  offset="0" style="stop-color:#F69320"/>
							<stop  offset="1" style="stop-color:#F06024"/>
						</linearGradient>
						<path class="st3" d="M20.8,34.6c0,0.6,0.5,1.1,1.1,1.1c0.6,0,1.1-0.5,1.1-1.1c0-0.6-0.5-1.1-1.1-1.1
							C21.4,33.5,20.8,34,20.8,34.6z"/>
					</g>
					<g>
						<path class="st0" d="M51.9,17.2c2.7-3.8,5.1-6,5.1-6s-4.1-2.5-6.2-3.7c0,0-4.3,8.2-3.3,18.5C47.4,26,49.2,20.9,51.9,17.2z"/>
					</g>
				</g>
			</g>
		</g>
		<g>
			<path class="st4" d="M4.9,58.2v2.2h-1v8h1v2.2H0.1v-2.2h1v-8h-1v-2.2H4.9z"/>
			<path class="st4" d="M17.8,70.5H15l-5.1-7.8c-0.3-0.5-0.5-0.8-0.6-1h0c0,0.4,0.1,1.1,0.1,2v6.8H6.7V58.2h3l4.9,7.5
				c0.2,0.3,0.4,0.7,0.6,1h0c0-0.3-0.1-0.9-0.1-1.7v-6.8h2.6V70.5z"/>
			<path class="st4" d="M20.1,70.1v-2.8c0.5,0.4,1,0.7,1.6,0.9c0.6,0.2,1.2,0.3,1.8,0.3c0.4,0,0.7,0,0.9-0.1
				c0.3-0.1,0.5-0.2,0.7-0.3c0.2-0.1,0.3-0.2,0.4-0.4c0.1-0.2,0.1-0.3,0.1-0.5c0-0.2-0.1-0.5-0.2-0.6c-0.1-0.2-0.3-0.4-0.6-0.5
				c-0.2-0.2-0.5-0.3-0.8-0.5c-0.3-0.1-0.7-0.3-1.1-0.5c-1-0.4-1.7-0.9-2.2-1.5c-0.5-0.6-0.7-1.3-0.7-2.1c0-0.6,0.1-1.2,0.4-1.7
				c0.3-0.5,0.6-0.8,1.1-1.1c0.4-0.3,1-0.5,1.5-0.7c0.6-0.1,1.2-0.2,1.9-0.2c0.6,0,1.2,0,1.7,0.1c0.5,0.1,1,0.2,1.4,0.4V61
				c-0.2-0.1-0.4-0.3-0.7-0.4c-0.2-0.1-0.5-0.2-0.8-0.3c-0.3-0.1-0.5-0.1-0.8-0.2c-0.3,0-0.5-0.1-0.7-0.1c-0.3,0-0.6,0-0.9,0.1
				c-0.3,0.1-0.5,0.1-0.7,0.3c-0.2,0.1-0.3,0.2-0.4,0.4c-0.1,0.2-0.1,0.3-0.1,0.5c0,0.2,0.1,0.4,0.2,0.6c0.1,0.2,0.3,0.3,0.5,0.5
				c0.2,0.1,0.4,0.3,0.7,0.4c0.3,0.1,0.6,0.3,1,0.4c0.5,0.2,0.9,0.4,1.3,0.7c0.4,0.2,0.7,0.5,1,0.8c0.3,0.3,0.5,0.6,0.6,1
				c0.1,0.4,0.2,0.8,0.2,1.3c0,0.7-0.1,1.3-0.4,1.7s-0.6,0.8-1.1,1.1c-0.4,0.3-1,0.5-1.6,0.6c-0.6,0.1-1.2,0.2-1.9,0.2
				c-0.7,0-1.3-0.1-1.9-0.2C21,70.5,20.5,70.3,20.1,70.1z"/>
			<path class="st4" d="M40.6,65.2c0,3.7-1.7,5.6-5.2,5.6c-3.4,0-5-1.8-5-5.4v-7.1h2.8v7.2c0,2,0.8,3,2.3,3c1.5,0,2.3-1,2.3-2.9
				v-7.3h2.8V65.2z"/>
			<path class="st4" d="M53.6,70.5h-3.2l-1.9-3.2c-0.1-0.2-0.3-0.5-0.4-0.6c-0.1-0.2-0.3-0.4-0.4-0.5c-0.1-0.1-0.3-0.2-0.4-0.3
				c-0.1-0.1-0.3-0.1-0.5-0.1h-0.7v4.7h-2.8V58.2h4.4c3,0,4.5,1.1,4.5,3.4c0,0.4-0.1,0.8-0.2,1.2c-0.1,0.4-0.3,0.7-0.6,1
				c-0.2,0.3-0.5,0.5-0.9,0.8c-0.3,0.2-0.7,0.4-1.1,0.5v0c0.2,0.1,0.4,0.2,0.5,0.3c0.2,0.1,0.3,0.3,0.5,0.5s0.3,0.4,0.5,0.6
				c0.1,0.2,0.3,0.4,0.4,0.6L53.6,70.5z M46.1,60.3v3.4h1.2c0.6,0,1.1-0.2,1.4-0.5c0.4-0.4,0.6-0.8,0.6-1.3c0-1.1-0.6-1.6-1.9-1.6
				H46.1z"/>
			<path class="st4" d="M65.7,70.5h-3l-0.9-2.7h-4.4l-0.9,2.7h-3L58,58.2h3.3L65.7,70.5z M61.1,65.7l-1.3-4.2
				c-0.1-0.3-0.2-0.7-0.2-1.1h-0.1c0,0.4-0.1,0.7-0.2,1.1l-1.3,4.2H61.1z"/>
			<path class="st4" d="M78.3,70.5h-2.8l-5.1-7.8c-0.3-0.5-0.5-0.8-0.6-1h0c0,0.4,0.1,1.1,0.1,2v6.8h-2.6V58.2h3l4.9,7.5
				c0.2,0.3,0.4,0.7,0.6,1h0c0-0.3-0.1-0.9-0.1-1.7v-6.8h2.6V70.5z"/>
			<path class="st4" d="M90,70.1c-0.9,0.4-2.1,0.7-3.5,0.7c-1.9,0-3.4-0.6-4.5-1.7c-1.1-1.1-1.6-2.6-1.6-4.5c0-2,0.6-3.6,1.8-4.8
				c1.2-1.2,2.8-1.8,4.7-1.8c1.2,0,2.2,0.2,3,0.5v2.7c-0.8-0.5-1.8-0.7-2.8-0.7c-1.2,0-2.1,0.4-2.8,1.1c-0.7,0.7-1.1,1.7-1.1,3
				c0,1.2,0.3,2.1,1,2.9c0.7,0.7,1.6,1.1,2.7,1.1c1.1,0,2.1-0.3,3-0.8V70.1z"/>
			<path class="st4" d="M99.5,70.5h-7.4V58.2h7.1v2.3h-4.3v2.7h4v2.3h-4v2.8h4.6V70.5z"/>
			<path class="st4" d="M105.8,70.1v-2.8c0.5,0.4,1,0.7,1.6,0.9c0.6,0.2,1.2,0.3,1.8,0.3c0.4,0,0.7,0,0.9-0.1
				c0.3-0.1,0.5-0.2,0.7-0.3c0.2-0.1,0.3-0.2,0.4-0.4c0.1-0.2,0.1-0.3,0.1-0.5c0-0.2-0.1-0.5-0.2-0.6c-0.1-0.2-0.3-0.4-0.6-0.5
				c-0.2-0.2-0.5-0.3-0.8-0.5c-0.3-0.1-0.7-0.3-1.1-0.5c-1-0.4-1.7-0.9-2.2-1.5c-0.5-0.6-0.7-1.3-0.7-2.1c0-0.6,0.1-1.2,0.4-1.7
				c0.3-0.5,0.6-0.8,1.1-1.1c0.4-0.3,1-0.5,1.5-0.7c0.6-0.1,1.2-0.2,1.9-0.2c0.6,0,1.2,0,1.7,0.1c0.5,0.1,1,0.2,1.4,0.4V61
				c-0.2-0.1-0.4-0.3-0.7-0.4c-0.2-0.1-0.5-0.2-0.8-0.3c-0.3-0.1-0.5-0.1-0.8-0.2s-0.5-0.1-0.7-0.1c-0.3,0-0.6,0-0.9,0.1
				c-0.3,0.1-0.5,0.1-0.7,0.3c-0.2,0.1-0.3,0.2-0.4,0.4c-0.1,0.2-0.1,0.3-0.1,0.5c0,0.2,0.1,0.4,0.2,0.6c0.1,0.2,0.3,0.3,0.5,0.5
				c0.2,0.1,0.4,0.3,0.7,0.4c0.3,0.1,0.6,0.3,1,0.4c0.5,0.2,0.9,0.4,1.3,0.7c0.4,0.2,0.7,0.5,1,0.8c0.3,0.3,0.5,0.6,0.6,1
				c0.1,0.4,0.2,0.8,0.2,1.3c0,0.7-0.1,1.3-0.4,1.7c-0.3,0.5-0.6,0.8-1.1,1.1c-0.4,0.3-1,0.5-1.6,0.6c-0.6,0.1-1.2,0.2-1.9,0.2
				c-0.7,0-1.3-0.1-1.9-0.2C106.8,70.5,106.3,70.3,105.8,70.1z"/>
			<path class="st4" d="M123.7,70.5h-7.4V58.2h7.1v2.3h-4.3v2.7h4v2.3h-4v2.8h4.6V70.5z"/>
			<path class="st4" d="M136,70.5h-3.2l-1.9-3.2c-0.1-0.2-0.3-0.5-0.4-0.6c-0.1-0.2-0.3-0.4-0.4-0.5c-0.1-0.1-0.3-0.2-0.4-0.3
				c-0.1-0.1-0.3-0.1-0.5-0.1h-0.7v4.7h-2.8V58.2h4.4c3,0,4.5,1.1,4.5,3.4c0,0.4-0.1,0.8-0.2,1.2c-0.1,0.4-0.3,0.7-0.6,1
				c-0.2,0.3-0.5,0.5-0.9,0.8c-0.3,0.2-0.7,0.4-1.1,0.5v0c0.2,0.1,0.4,0.2,0.5,0.3c0.2,0.1,0.3,0.3,0.5,0.5c0.2,0.2,0.3,0.4,0.5,0.6
				c0.1,0.2,0.3,0.4,0.4,0.6L136,70.5z M128.4,60.3v3.4h1.2c0.6,0,1.1-0.2,1.4-0.5c0.4-0.4,0.6-0.8,0.6-1.3c0-1.1-0.6-1.6-1.9-1.6
				H128.4z"/>
			<path class="st4" d="M147.5,58.2l-4.3,12.3H140l-4.2-12.3h3l2.6,8.6c0.1,0.5,0.2,0.9,0.2,1.2h0.1c0-0.4,0.1-0.8,0.3-1.3l2.6-8.6
				H147.5z"/>
			<path class="st4" d="M152.7,58.2v2.2h-1v8h1v2.2h-4.8v-2.2h1v-8h-1v-2.2H152.7z"/>
			<path class="st4" d="M163.4,70.1c-0.9,0.4-2.1,0.7-3.5,0.7c-1.9,0-3.4-0.6-4.5-1.7c-1.1-1.1-1.6-2.6-1.6-4.5c0-2,0.6-3.6,1.8-4.8
				c1.2-1.2,2.8-1.8,4.7-1.8c1.2,0,2.2,0.2,3,0.5v2.7c-0.8-0.5-1.8-0.7-2.8-0.7c-1.2,0-2.1,0.4-2.8,1.1c-0.7,0.7-1.1,1.7-1.1,3
				c0,1.2,0.3,2.1,1,2.9c0.7,0.7,1.6,1.1,2.7,1.1c1.1,0,2.1-0.3,3-0.8V70.1z"/>
			<path class="st4" d="M172.9,70.5h-7.4V58.2h7.1v2.3h-4.3v2.7h4v2.3h-4v2.8h4.6V70.5z"/>
			<path class="st4" d="M174.3,70.1v-2.8c0.5,0.4,1,0.7,1.6,0.9c0.6,0.2,1.2,0.3,1.8,0.3c0.4,0,0.7,0,0.9-0.1
				c0.3-0.1,0.5-0.2,0.7-0.3c0.2-0.1,0.3-0.2,0.4-0.4c0.1-0.2,0.1-0.3,0.1-0.5c0-0.2-0.1-0.5-0.2-0.6c-0.1-0.2-0.3-0.4-0.6-0.5
				c-0.2-0.2-0.5-0.3-0.8-0.5c-0.3-0.1-0.7-0.3-1.1-0.5c-1-0.4-1.7-0.9-2.2-1.5c-0.5-0.6-0.7-1.3-0.7-2.1c0-0.6,0.1-1.2,0.4-1.7
				c0.3-0.5,0.6-0.8,1.1-1.1c0.4-0.3,1-0.5,1.5-0.7c0.6-0.1,1.2-0.2,1.9-0.2c0.6,0,1.2,0,1.7,0.1c0.5,0.1,1,0.2,1.4,0.4V61
				c-0.2-0.1-0.4-0.3-0.7-0.4c-0.2-0.1-0.5-0.2-0.8-0.3c-0.3-0.1-0.5-0.1-0.8-0.2c-0.3,0-0.5-0.1-0.7-0.1c-0.3,0-0.6,0-0.9,0.1
				c-0.3,0.1-0.5,0.1-0.7,0.3c-0.2,0.1-0.3,0.2-0.4,0.4c-0.1,0.2-0.1,0.3-0.1,0.5c0,0.2,0.1,0.4,0.2,0.6c0.1,0.2,0.3,0.3,0.5,0.5
				c0.2,0.1,0.4,0.3,0.7,0.4c0.3,0.1,0.6,0.3,1,0.4c0.5,0.2,0.9,0.4,1.3,0.7c0.4,0.2,0.7,0.5,1,0.8c0.3,0.3,0.5,0.6,0.6,1
				c0.1,0.4,0.2,0.8,0.2,1.3c0,0.7-0.1,1.3-0.4,1.7c-0.3,0.5-0.6,0.8-1.1,1.1c-0.4,0.3-1,0.5-1.6,0.6c-0.6,0.1-1.2,0.2-1.9,0.2
				c-0.7,0-1.3-0.1-1.9-0.2C175.3,70.5,174.8,70.3,174.3,70.1z"/>
		</g>
		<g>
			<g>
				<polygon class="st0" points="123.6,20.5 119.1,30.2 131,30.2 119.9,53.2 137.9,53.2 142.7,43.5 133.3,43.5 139.3,31.2 
					133.6,31.2 138.2,20.5 				"/>
				<polygon class="st0" points="139.7,20.5 135.5,30.2 146.3,30.2 140.4,42.4 144.7,42.4 139.6,53.2 150.7,53.2 155.3,43.5 
					148.6,43.5 159.8,20.5 				"/>
			</g>
			<g>
				<path class="st0" d="M104.3,20.5L92.7,53.2h-9.5L71.8,20.5h10l6.3,20.3l6.3-20.3H104.3z"/>
				<path class="st0" d="M116.5,20.5v32.7h-9.6V20.5H116.5z"/>
			</g>
			<g>
				<path class="st0" d="M182.8,53.1l-9.3,0l-2-5.8l-13.8,0l-2.5,5.8l-2.8,0l5-10.7h-6.6l10.6-21.9l9.9,0L182.8,53.1z M165.3,29.8
					l-4.6,10.9l8.4,0L165.3,29.8z"/>
			</g>
		</g>
	</g>
</g>
</svg>
