<svg xmlns="http://www.w3.org/2000/svg" viewBox="0 0 19.66 27.14"><defs><style>.cls-1{fill:#FFD400;}</style></defs><title>Asset 66</title><g id="Layer_2" data-name="Layer 2"><g id="Layer_1-2" data-name="Layer 1"><path class="cls-1" d="M14.07,13.19a8.64,8.64,0,0,1-1.56,1.4,5.88,5.88,0,0,1-5.44,0,2,2,0,0,1-.94-.86c-.27-.7-.72-.6-1.21-.45a6.35,6.35,0,0,0-4.75,5c-.55,2.41.23,4.06,2.2,4.5a37,37,0,0,0,4.32.46c-1.76-1.62-1.93-2.52-.4-3.78a7.47,7.47,0,0,0,.78,1c.14.14.46.1.69.14,0-.27,0-.62-.1-.77A7.6,7.6,0,0,0,6.44,19c.7-.51,1.07-1,1.38-1a10.08,10.08,0,0,1,2.09.63c1.67-1.54,1.4-1.82,3.32.15l.15.14c1.48,1.43,1.59,2.2.43,4.26,1.28-.16,2.38-.23,3.45-.44a2.67,2.67,0,0,0,2.17-1.9C20.52,17.47,17.45,13.23,14.07,13.19Z"/><path class="cls-1" d="M10.8,6.7c1.31,0,2.63,0,3.94,0a1.22,1.22,0,0,0,.8-.44.81.81,0,0,0-.11-.69c-.91-.21-.71-1-.89-1.6a4.9,4.9,0,0,0-2.46-3,9.52,9.52,0,0,1-.25,1.18c-.17.46-.4.89-.61,1.34A5,5,0,0,1,11.08,2c.49-2.22.19-2-1.87-2-.64,0-.94.28-.81,1s.24,1.25.3,1.89c0,.19-.19.41-.29.62C8.27,3.3,8.06,3.17,8,3c-.17-.64-.28-1.3-.43-2.06A5,5,0,0,0,5,4.56a2.21,2.21,0,0,1-.34.73c-.17.31-.38.6-.57.9.33.17.65.48,1,.49C7,6.73,8.88,6.7,10.8,6.7Z"/><path class="cls-1" d="M10.83,22.35a2.44,2.44,0,0,1-1-2.12,1.75,1.75,0,0,0-1.47-1.71,2.61,2.61,0,0,0-.86.17C8,19.45,9,20,8.16,20.85s-1.44-.2-2.34-.7a4.28,4.28,0,0,0,.11,1.23A2.11,2.11,0,0,0,7.86,22.6a2.34,2.34,0,0,1,1.26.51c1.09,1,2.12,2.07,3.16,3.12.43.43.91.67,1.39.16s.24-1-.2-1.4C12.59,24.12,11.72,23.22,10.83,22.35Z"/><path class="cls-1" d="M12.51,11.44a3.09,3.09,0,0,1-1,1,3.19,3.19,0,0,1-4.4-1A16.85,16.85,0,0,1,5.63,8.16L5.3,7.44C4.78,9.74,6.82,13,8.94,13.51a3.42,3.42,0,0,0,3-.56,7.41,7.41,0,0,0,2.75-5.33l-.34-.18L14,8.19A16.53,16.53,0,0,1,12.51,11.44Z"/><path class="cls-1" d="M10.56,21.16l.9,1.11,1.17-1L13,23c1.47-1.38,1.49-2.37.28-3.53-.44-.42-.84-.9-1.31-1.27a.88.88,0,0,0-.76,0A9.35,9.35,0,0,0,9.94,19C10.91,19.78,12,20.32,10.56,21.16Z"/><path class="cls-1" d="M5.93,25.2c-.44.37-.43.76,0,1.06s.7,1.35,1.48.63a31.89,31.89,0,0,0,2.28-2.53L8.34,23.1Z"/></g></g></svg>
