<?xml version="1.0" encoding="utf-8"?>
<!-- Generator: Adobe Illustrator 23.0.2, SVG Export Plug-In . SVG Version: 6.00 Build 0)  -->
<svg version="1.1" id="Capa_1" xmlns="http://www.w3.org/2000/svg" xmlns:xlink="http://www.w3.org/1999/xlink" x="0px" y="0px"
	 viewBox="0 0 59.1 77" style="enable-background:new 0 0 59.1 77;" xml:space="preserve">
<g>
	<path d="M58,68.4c0.6,0,1.1-0.5,1.1-1.1V13.9c0-0.6-0.5-1.1-1.1-1.1h-3.4V7.5c0-0.6-0.5-1.1-1.1-1.1h-3.4V1.1C50.1,0.5,49.6,0,49,0
		H1.1C0.5,0,0,0.5,0,1.1v3.7c0,0.6,0.5,1.1,1.1,1.1s1.1-0.5,1.1-1.1V2.3h45.6V62H2.3V9.7c0-0.6-0.5-1.1-1.1-1.1S0,9.1,0,9.7v53.4
		c0,0.6,0.5,1.1,1.1,1.1h3.4v5.3c0,0.6,0.5,1.1,1.1,1.1H9v5.3c0,0.6,0.5,1.1,1.1,1.1H58c0.6,0,1.1-0.5,1.1-1.1v-3.7
		c0-0.6-0.5-1.1-1.1-1.1s-1.1,0.5-1.1,1.1v2.6H11.3v-4.1h5.1c0.6,0,1.1-0.5,1.1-1.1s-0.5-1.1-1.1-1.1H6.8v-4.1H49
		c0.6,0,1.1-0.5,1.1-1.1V8.6h2.3v59.7H21.3c-0.6,0-1.1,0.5-1.1,1.1s0.5,1.1,1.1,1.1h32.2c0.6,0,1.1-0.5,1.1-1.1V15h2.3v52.3
		C56.8,67.9,57.4,68.4,58,68.4L58,68.4z"/>
	<path d="M41,18.7v-9c0-0.6-0.5-1.1-1.1-1.1H10.1C9.5,8.6,9,9.1,9,9.7v9c0,0.6,0.5,1.1,1.1,1.1h29.8C40.5,19.9,41,19.3,41,18.7
		L41,18.7z M38.8,17.6H11.2v-6.8h27.5V17.6L38.8,17.6z"/>
	<path d="M8.4,47.4c0,0.6,0.5,1.1,1.1,1.1h30.4c0.6,0,1.1-0.5,1.1-1.1s-0.5-1.1-1.1-1.1H9.5C8.9,46.2,8.4,46.8,8.4,47.4z"/>
	<path d="M16.2,40.3c0,0.6,0.5,1.1,1.1,1.1c0.6,0,1.1-0.5,1.1-1.1c0-3.4,2.8-6.2,6.2-6.2s6.2,2.8,6.2,6.2c0,0.6,0.5,1.1,1.1,1.1
		c0.6,0,1.1-0.5,1.1-1.1c0-3.4-2-6.3-4.8-7.6c1.2-1,1.9-2.6,1.9-4.2c0-3.1-2.5-5.6-5.6-5.6s-5.6,2.5-5.6,5.6c0,1.7,0.8,3.2,1.9,4.2
		C18.2,34,16.2,37,16.2,40.3z M21.3,28.4c0-1.9,1.5-3.4,3.4-3.4c1.9,0,3.4,1.5,3.4,3.4s-1.5,3.4-3.4,3.4
		C22.8,31.8,21.3,30.3,21.3,28.4z"/>
	<g>
		<path d="M5.9,58.2c-0.1-0.1-0.2-0.3-0.2-0.5v-5.2c0-0.2,0.1-0.4,0.2-0.5c0.1-0.1,0.3-0.2,0.5-0.2h3.2c0.2,0,0.4,0,0.5,0.1
			c0.1,0.1,0.2,0.2,0.2,0.4c0,0.2-0.1,0.3-0.2,0.4c-0.1,0.1-0.3,0.1-0.5,0.1H7.1v1.5h2.2c0.2,0,0.4,0,0.5,0.1C10,54.7,10,54.8,10,55
			c0,0.2-0.1,0.3-0.2,0.4c-0.1,0.1-0.3,0.1-0.5,0.1H7.1v2.1c0,0.2-0.1,0.4-0.2,0.5c-0.1,0.1-0.3,0.2-0.5,0.2
			C6.2,58.4,6,58.3,5.9,58.2z"/>
		<path d="M12.2,58c-0.5-0.3-0.8-0.7-1.1-1.2s-0.4-1.1-0.4-1.8s0.1-1.3,0.4-1.8c0.3-0.5,0.6-0.9,1.1-1.2c0.5-0.3,1-0.4,1.7-0.4
			s1.2,0.1,1.7,0.4c0.5,0.3,0.8,0.7,1.1,1.2c0.3,0.5,0.4,1.1,0.4,1.8s-0.1,1.3-0.4,1.8c-0.3,0.5-0.6,0.9-1.1,1.2
			c-0.5,0.3-1,0.4-1.7,0.4C13.3,58.4,12.7,58.3,12.2,58z M15.2,56.7c0.3-0.4,0.5-0.9,0.5-1.7c0-0.7-0.2-1.3-0.5-1.7
			s-0.7-0.6-1.3-0.6s-1,0.2-1.3,0.6s-0.5,0.9-0.5,1.7c0,0.7,0.2,1.3,0.5,1.7c0.3,0.4,0.7,0.6,1.3,0.6C14.5,57.3,14.9,57.1,15.2,56.7
			z"/>
		<path d="M23.7,57.8c0,0.2-0.1,0.3-0.2,0.4c-0.1,0.1-0.3,0.2-0.5,0.2c-0.1,0-0.2,0-0.3-0.1c-0.1-0.1-0.2-0.1-0.3-0.3l-1.2-1.8
			c-0.1-0.2-0.2-0.3-0.3-0.3s-0.3-0.1-0.5-0.1h-0.8v1.9c0,0.2-0.1,0.4-0.2,0.5c-0.1,0.1-0.3,0.2-0.5,0.2c-0.2,0-0.4-0.1-0.5-0.2
			c-0.1-0.1-0.2-0.3-0.2-0.5v-5.2c0-0.2,0.1-0.4,0.2-0.5c0.1-0.1,0.3-0.2,0.5-0.2h2.3c0.8,0,1.3,0.2,1.7,0.5
			c0.4,0.3,0.6,0.8,0.6,1.5c0,0.5-0.1,0.9-0.4,1.2c-0.3,0.3-0.7,0.6-1.2,0.7c0.2,0,0.3,0.1,0.5,0.2c0.2,0.1,0.3,0.3,0.4,0.5l0.7,1.1
			C23.6,57.5,23.7,57.7,23.7,57.8z M21.9,54.5c0.2-0.2,0.3-0.4,0.3-0.7c0-0.3-0.1-0.5-0.3-0.7c-0.2-0.1-0.5-0.2-0.9-0.2h-1.4v1.8H21
			C21.4,54.7,21.7,54.6,21.9,54.5z"/>
		<path d="M31,52c0.1,0.1,0.2,0.3,0.2,0.5v5.2c0,0.2-0.1,0.4-0.2,0.5c-0.1,0.1-0.3,0.2-0.5,0.2c-0.2,0-0.3-0.1-0.5-0.2
			c-0.1-0.1-0.2-0.3-0.2-0.5v-3.3l-1.3,2.5c-0.1,0.2-0.2,0.3-0.3,0.3c-0.1,0.1-0.2,0.1-0.4,0.1s-0.3,0-0.4-0.1
			c-0.1-0.1-0.2-0.2-0.3-0.3L26,54.5v3.2c0,0.2-0.1,0.4-0.2,0.5c-0.1,0.1-0.3,0.2-0.5,0.2c-0.2,0-0.3-0.1-0.5-0.2
			c-0.1-0.1-0.2-0.3-0.2-0.5v-5.2c0-0.2,0.1-0.4,0.2-0.5c0.1-0.1,0.3-0.2,0.5-0.2c0.3,0,0.5,0.2,0.7,0.5l1.9,3.6l1.9-3.6
			c0.2-0.3,0.4-0.5,0.7-0.5C30.7,51.8,30.8,51.8,31,52z"/>
		<path d="M38.7,54.4c0.3,0.2,0.5,0.4,0.7,0.8c0.2,0.3,0.3,0.7,0.3,1.1c0,0.4-0.1,0.8-0.3,1.1c-0.2,0.3-0.5,0.6-0.8,0.8
			c-0.3,0.2-0.7,0.3-1.1,0.3c-0.8,0-1.5-0.3-2-0.8c-0.5-0.6-0.7-1.4-0.7-2.4c0-0.7,0.1-1.3,0.3-1.8c0.2-0.5,0.5-0.9,0.9-1.2
			c0.4-0.3,0.9-0.4,1.4-0.4c0.3,0,0.7,0.1,1.1,0.2c0.4,0.1,0.7,0.3,0.9,0.5c0.1,0.1,0.2,0.1,0.2,0.2c0,0.1,0.1,0.2,0.1,0.3
			c0,0.2,0,0.3-0.1,0.4c-0.1,0.1-0.2,0.2-0.3,0.2c-0.1,0-0.2,0-0.2,0c-0.1,0-0.1-0.1-0.2-0.1c-0.2-0.2-0.5-0.3-0.7-0.3
			c-0.2-0.1-0.4-0.1-0.6-0.1c-0.4,0-0.7,0.2-0.9,0.5s-0.3,0.8-0.4,1.5c0.1-0.2,0.3-0.4,0.6-0.6c0.3-0.1,0.5-0.2,0.9-0.2
			C38,54.1,38.4,54.2,38.7,54.4z M38,57c0.2-0.2,0.3-0.5,0.3-0.8s-0.1-0.6-0.3-0.8c-0.2-0.2-0.4-0.3-0.7-0.3c-0.3,0-0.5,0.1-0.7,0.3
			c-0.2,0.2-0.3,0.4-0.3,0.8s0.1,0.6,0.3,0.8c0.2,0.2,0.4,0.3,0.7,0.3S37.8,57.2,38,57z"/>
		<path d="M45.4,56.6c0,0.4-0.2,0.6-0.7,0.6h-0.3v0.5c0,0.2-0.1,0.4-0.2,0.5c-0.1,0.1-0.3,0.2-0.5,0.2c-0.2,0-0.4-0.1-0.5-0.2
			c-0.1-0.1-0.2-0.3-0.2-0.5v-0.5h-2.2c-0.2,0-0.3-0.1-0.5-0.2c-0.1-0.1-0.2-0.3-0.2-0.4c0-0.2,0.1-0.3,0.2-0.5l2.8-3.9
			c0.1-0.1,0.2-0.2,0.3-0.2c0.1,0,0.2-0.1,0.3-0.1c0.2,0,0.4,0.1,0.5,0.2c0.1,0.1,0.2,0.3,0.2,0.5v3.6h0.3
			C45.2,56,45.4,56.2,45.4,56.6z M43,56v-2l-1.4,2H43z"/>
	</g>
</g>
</svg>
