<?xml version="1.0" encoding="utf-8"?>
<!-- Generator: Adobe Illustrator 23.0.2, SVG Export Plug-In . SVG Version: 6.00 Build 0)  -->
<svg version="1.1" id="Layer_1" xmlns="http://www.w3.org/2000/svg" xmlns:xlink="http://www.w3.org/1999/xlink" x="0px" y="0px"
	 viewBox="0 0 19.1 19.1" style="enable-background:new 0 0 19.1 19.1;" xml:space="preserve">
<style type="text/css">
	.st0{fill:url(#SVGID_1_);}
	.st1{fill:url(#SVGID_2_);}
	.st2{fill:#193E1E;}
</style>
<g>
	<g>
		<g>
			<g>
				<linearGradient id="SVGID_1_" gradientUnits="userSpaceOnUse" x1="7.3297" y1="17.1719" x2="11.9701" y2="5.3093">
					<stop  offset="0" style="stop-color:#F6921E"/>
					<stop  offset="1" style="stop-color:#F05F22"/>
				</linearGradient>
				<path class="st0" d="M18.8,11.9c-0.9-4.3-2.9-5.7-2.9-5.7c-2.7,1.7-3.4,4.7-3.4,4.7c-1.4-3,0-6.7,0-6.7h-1.6
					c0,0-0.1-0.1-0.5-0.6c-0.3-0.5-0.8-0.9-2-1c-1.1,0-2.9,0.2-5,1.8S0.3,8.5,0,10c-0.2,1.5,0.1,3.8,2.2,5.3
					c1.9,1.6,4.8,0.8,4.8,0.8v-1.4H7c-1,0.1-1.8,0.1-2.4-0.1C2.4,13.9,2.2,12,2.2,12C2.1,9.4,4.4,8.2,4.4,8.2l0.3,0.3
					c-1.4,1-1.3,2.5-1.1,3.1c0.1,0.9,0.6,1,0.6,1c-0.1-1.3,0.3-1.8,0.3-1.8C5.4,9.3,7,9.3,7,9.3c1.4,0.1,1.5,1,1.4,1.6
					c0,0.5-0.6,1.8-0.6,1.8l0.5-0.6c0.1,0.3,0,0.8-0.5,1.8s-0.3,2.4-0.3,2.4H11c0.1-0.3,0.2-1.4,0.5-2.6c0.2-1.1,0.9-1.5,0.9-1.5
					c0.5,0,1-0.1,2.2,0.9c1,1,1,2,1,2c-0.1-0.1-0.3-0.5-0.3-0.5c0.2,0.7,0.1,1.5,0.1,1.5h2.4c1-1.7,0.5-4.1,0.5-4.1
					c0.7,0.3,0.8,1.5,0.8,1.5C19.3,13.3,18.8,11.9,18.8,11.9z M5.8,6.1C5.6,6.1,5.5,6,5.5,5.8s0.1-0.4,0.3-0.4s0.4,0.2,0.4,0.4
					S6,6.1,5.8,6.1z"/>
			</g>
			<g>
				<linearGradient id="SVGID_2_" gradientUnits="userSpaceOnUse" x1="4.3129" y1="16.8592" x2="5.8117" y2="11.5297">
					<stop  offset="0" style="stop-color:#F6921E"/>
					<stop  offset="1" style="stop-color:#F05F22"/>
				</linearGradient>
				<path class="st1" d="M5.5,11.7c0,0.2,0.1,0.3,0.3,0.3C5.9,12,6,11.9,6,11.7s0-0.3-0.3-0.3C5.6,11.5,5.5,11.6,5.5,11.7z"/>
			</g>
			<g>
				<path class="st2" d="M13.6,7.2c0.7-1,1.3-1.6,1.3-1.6s-1-0.7-1.6-1c0,0-1,2.2-0.9,4.8C12.5,9.4,12.9,8.2,13.6,7.2z"/>
			</g>
		</g>
	</g>
</g>
</svg>
