<?xml version="1.0" encoding="utf-8"?>
<!-- Generator: Adobe Illustrator 16.0.3, SVG Export Plug-In . SVG Version: 6.00 Build 0)  -->
<!DOCTYPE svg PUBLIC "-//W3C//DTD SVG 1.1//EN" "http://www.w3.org/Graphics/SVG/1.1/DTD/svg11.dtd">
<svg version="1.1" id="Layer_1" xmlns="http://www.w3.org/2000/svg" xmlns:xlink="http://www.w3.org/1999/xlink" x="0px" y="0px"
	 width="500px" height="500px" viewBox="0 0 500 500" enable-background="new 0 0 500 500" xml:space="preserve">
<g>
	<path fill="#00335B" d="M368.526,233.878c-1.01,0.288-1.783,0.49-2.545,0.729c-32.203,10.164-64.406,20.325-96.606,30.495
		c-6.896,2.178-13.798,2.296-20.715,0.107c-27.739-8.775-55.478-17.551-83.218-26.325c-5.659-1.79-11.32-3.568-17.028-5.368
		c-0.258,0.609-0.458,0.962-0.561,1.342c-3.729,13.688-7.483,27.369-11.148,41.075c-2.458,9.191-1.911,18.223,1.871,26.998
		c4.254,9.871,11.166,17.783,19.19,24.627c31.071,26.494,67.364,37.844,107.88,36.252c21.047-0.83,41.056-6.051,60.126-15.066
		c19.682-9.307,35.629-23.08,49.219-39.891c5.6-6.922,8.125-14.709,7.157-23.412C380.178,267.695,374.566,250.866,368.526,233.878z"
		/>
	<path fill="#00335B" d="M487.469,168.824c-1.491,4.099-4.745,6.021-8.684,7.261c-70.876,22.338-141.743,44.7-212.604,67.072
		c-3.752,1.184-7.395,1.063-11.152-0.121c-31.585-9.979-63.192-19.889-94.792-29.82c-0.521-0.164-1.026-0.378-2.173-0.804
		c3.006-1.766,5.524-3.407,8.187-4.776c20.116-10.349,41.369-17.617,63.337-22.769c11.767-2.761,23.681-4.884,35.521-7.325
		c5.204-1.074,9.018-5.638,9.125-10.797c0.105-5.188-3.291-10.111-8.261-11.167c-2.276-0.483-4.816-0.19-7.164,0.192
		c-26.962,4.403-53.453,10.648-78.842,20.944c-14.602,5.921-28.803,12.64-41.492,22.18c-8.919,6.704-15.85,15.111-21.514,24.643
		c-2.259,3.801-2.551,7.731-0.12,11.445c4.98,7.604,3.968,18.647-3.743,25.813c-2.942,2.734-3.267,6.023-3.12,9.719
		c0.43,10.965,1.035,21.939,0.941,32.904c-0.178,21.445-2.356,42.689-8.237,63.41c-3.241,11.42-8.027,22.131-15.476,31.5
		c-5.009,6.301-11.229,10.832-19.143,12.824c-0.278,0.07-0.516,0.311-0.771,0.471c-4.685,0-9.369,0-14.054,0
		c-8.777-2.43-17.062-6.023-24.217-11.664c-5.742-4.523-11.012-9.646-16.492-14.504c0-0.162,0-0.324,0-0.486
		c0.663-0.566,1.373-1.088,1.981-1.707c7.064-7.203,14.206-14.336,21.152-21.652c23.563-24.814,39.854-53.574,46.998-87.249
		c1.312-6.169,2.291-12.407-1.617-18.009c-7.213-10.339-2.764-23.688,6.938-29.688c3.81-2.356,6.428-5.495,8.51-9.323
		c3.391-6.229,6.897-12.395,10.354-18.586c0.342-0.613,0.665-1.236,1.063-1.98c-0.544-0.183-0.909-0.311-1.274-0.427
		c-16.134-5.12-32.268-10.23-48.396-15.363c-6.068-1.93-12.153-3.815-18.168-5.897c-3.875-1.341-6.074-4.158-6.121-8.389
		c-0.047-4.22,2.049-7.242,6.166-8.955c0.965-0.4,1.964-0.728,2.962-1.042c70.322-22.191,140.649-44.363,210.957-66.604
		c4.414-1.396,8.604-1.445,13.021-0.046c35.729,11.313,71.49,22.521,107.229,33.805c34.583,10.919,69.146,21.904,103.732,32.814
		c4.255,1.343,7.901,3.25,9.446,7.794C487.469,165.917,487.469,167.37,487.469,168.824z"/>
	<path fill="#00335B" d="M368.526,233.878c6.04,16.988,11.651,33.815,13.622,51.563c0.968,8.703-1.56,16.49-7.157,23.412
		c-13.59,16.811-29.537,30.584-49.219,39.891c-19.07,9.018-39.079,14.236-60.126,15.066c-40.516,1.592-76.809-9.758-107.88-36.252
		c-8.024-6.844-14.938-14.756-19.19-24.627c-3.782-8.773-4.329-17.807-1.871-26.998c3.665-13.706,7.422-27.388,11.148-41.075
		c0.104-0.38,0.303-0.73,0.561-1.342c5.708,1.799,11.369,3.578,17.028,5.368c27.74,8.773,55.479,17.549,83.218,26.325
		c6.917,2.188,13.819,2.068,20.715-0.107c32.2-10.17,64.403-20.332,96.606-30.495C366.743,234.368,367.517,234.166,368.526,233.878z
		"/>
</g>
</svg>
